<svg width="151" height="385" viewBox="0 0 151 385" fill="none" xmlns="http://www.w3.org/2000/svg">
<path d="M69 384.864L1.8 354.912L1.8 339.552L69 309.504V325.824L9.672 350.4V344.256L69 368.928V384.864ZM54.6 369.888L42.792 365.76V331.2L54.6 326.976V369.888ZM70.152 271.309C70.152 276.493 69.32 281.325 67.656 285.805C65.928 290.221 63.496 294.061 60.36 297.326C57.224 300.589 53.544 303.149 49.32 305.005C45.096 306.797 40.456 307.693 35.4 307.693C30.344 307.693 25.704 306.797 21.48 305.005C17.256 303.149 13.576 300.589 10.44 297.326C7.304 293.997 4.904 290.125 3.23999 285.709C1.512 281.293 0.647999 276.461 0.647999 271.213C0.647999 265.389 1.672 260.141 3.72 255.469C5.704 250.733 8.648 246.765 12.552 243.565L21.768 253.549C19.144 255.853 17.192 258.413 15.912 261.229C14.568 264.045 13.896 267.117 13.896 270.445C13.896 273.581 14.408 276.461 15.432 279.085C16.456 281.709 17.928 283.981 19.848 285.901C21.768 287.821 24.04 289.325 26.664 290.413C29.288 291.437 32.2 291.949 35.4 291.949C38.6 291.949 41.512 291.437 44.136 290.413C46.76 289.325 49.032 287.821 50.952 285.901C52.872 283.981 54.344 281.709 55.368 279.085C56.392 276.461 56.904 273.581 56.904 270.445C56.904 267.117 56.264 264.045 54.984 261.229C53.64 258.413 51.624 255.853 48.936 253.549L58.152 243.565C62.056 246.765 65.032 250.733 67.08 255.469C69.128 260.141 70.152 265.421 70.152 271.309ZM69 219.799H14.472L14.472 241.303H1.8L1.8 182.743H14.472V204.247H69V219.799ZM69 174.376H1.8L1.8 158.824H69V174.376ZM70.152 110.236C70.152 115.548 69.288 120.476 67.56 125.02C65.832 129.5 63.4 133.404 60.264 136.732C57.128 139.996 53.448 142.556 49.224 144.412C45 146.204 40.392 147.1 35.4 147.1C30.408 147.1 25.8 146.204 21.576 144.412C17.352 142.556 13.672 139.964 10.536 136.636C7.4 133.308 4.96799 129.404 3.23999 124.924C1.512 120.444 0.647999 115.58 0.647999 110.332C0.647999 105.02 1.512 100.156 3.23999 95.7397C4.96799 91.2597 7.4 87.3877 10.536 84.1237C13.672 80.7957 17.352 78.2037 21.576 76.3477C25.736 74.4917 30.344 73.5637 35.4 73.5637C40.392 73.5637 45.032 74.4917 49.32 76.3477C53.544 78.2037 57.224 80.7957 60.36 84.1237C63.432 87.3877 65.832 91.2597 67.56 95.7397C69.288 100.156 70.152 104.988 70.152 110.236ZM56.904 110.332C56.904 107.324 56.392 104.572 55.368 102.076C54.344 99.5157 52.872 97.2757 50.952 95.3557C49.032 93.4357 46.76 91.9637 44.136 90.9397C41.512 89.8517 38.6 89.3077 35.4 89.3077C32.2 89.3077 29.288 89.8517 26.664 90.9397C24.04 91.9637 21.768 93.4357 19.848 95.3557C17.928 97.2117 16.456 99.4197 15.432 101.98C14.408 104.54 13.896 107.324 13.896 110.332C13.896 113.34 14.408 116.124 15.432 118.684C16.456 121.18 17.928 123.388 19.848 125.308C21.768 127.228 24.04 128.732 26.664 129.82C29.288 130.844 32.2 131.356 35.4 131.356C38.536 131.356 41.448 130.844 44.136 129.82C46.76 128.732 49.032 127.26 50.952 125.404C52.872 123.484 54.344 121.244 55.368 118.684C56.392 116.124 56.904 113.34 56.904 110.332ZM69 61.8757H1.8L1.8 49.0117L50.184 9.36374V15.6038H1.8L1.8 0.243748H69V13.0117L20.616 52.7557V46.5157H69V61.8757ZM151 376.032H83.8V346.944C83.8 340.928 84.792 335.744 86.776 331.392C88.696 327.04 91.48 323.68 95.128 321.312C98.776 318.944 103.128 317.76 108.184 317.76C113.176 317.76 117.496 318.944 121.144 321.312C124.792 323.68 127.608 327.04 129.592 331.392C131.512 335.744 132.472 340.928 132.472 346.944V367.392L125.464 360.48H151V376.032ZM127.192 360.48L119.8 367.392V347.808C119.8 343.008 118.776 339.424 116.728 337.056C114.68 334.688 111.832 333.504 108.184 333.504C104.472 333.504 101.592 334.688 99.544 337.056C97.496 339.424 96.472 343.008 96.472 347.808V367.392L89.08 360.48H127.192ZM151 306.657H83.8V291.105H138.328V257.409H151V306.657ZM151 257.177L83.8 227.224V211.864L151 181.816V198.136L91.672 222.712V216.568L151 241.24V257.177ZM136.6 242.201L124.792 238.072V203.512L136.6 199.288V242.201ZM151 174.844H83.8V161.98L132.184 122.332V128.573H83.8V113.212H151V125.98L102.616 165.724V159.484H151V174.844Z" fill="#D9DADB"/>
</svg>
