<svg width="532" height="94" viewBox="0 0 532 94" fill="none" xmlns="http://www.w3.org/2000/svg">
<g clip-path="url(#clip0_85_1019)">
<path d="M446.734 81.3522C446.437 81.685 446.105 82.0004 445.773 82.2982C443.432 84.4178 440.672 85.4864 437.493 85.4864C430.243 85.4864 425.107 80.2661 425.107 72.8036C425.107 65.341 430.261 60.1208 437.493 60.1208C439.117 60.1208 440.655 60.401 442.052 60.9616C443.921 61.6798 445.598 62.9061 447.066 64.5878L450.437 56.7574C450.228 56.5822 450.001 56.407 449.791 56.2493C446.385 53.6742 442.017 52.2903 437.039 52.2903C424.985 52.2903 416.023 60.839 416.023 72.7861C416.023 84.7331 424.985 93.2993 436.969 93.2993C442.122 93.2993 446.612 91.8453 450.053 89.1126L446.716 81.3522H446.734Z" fill="white"/>
<path d="M532 67.2855C532 76.2721 525.414 81.8602 514.88 81.8602H510.775L506.949 74.2575V92.9664H497.831V52.6582H514.898C525.432 52.6582 532.017 58.2464 532.017 67.2855H532ZM522.759 67.2855C522.759 62.8535 519.946 60.2609 514.374 60.2609H506.949V74.2575H514.374C519.946 74.2575 522.759 71.6649 522.759 67.2855Z" fill="white"/>
<path d="M457.146 76.2195V54.7253H465.828V75.9042C465.828 83.1916 468.937 86.2221 474.195 86.2221C479.453 86.2221 482.563 83.2091 482.563 75.9042V54.7253H491.14V76.2195C491.14 87.5184 484.816 93.7722 474.143 93.7722C463.469 93.7722 457.146 87.5184 457.146 76.2195Z" fill="white"/>
<path d="M192.386 83.0164C192.386 89.8308 187.11 93.7723 176.978 93.7723H160.872L157.063 84.9433V54.3399H175.878C185.503 54.3399 190.464 58.4566 190.464 64.5878C190.464 68.5292 188.49 71.5773 185.346 73.259C189.643 74.6604 192.386 78.0414 192.386 82.9989V83.0164ZM165.92 61.2068V70.5087H174.777C179.127 70.5087 181.485 68.9322 181.485 65.8315C181.485 62.7309 179.127 61.2068 174.777 61.2068H165.92ZM183.424 82.0529C183.424 78.7246 180.944 77.148 176.332 77.148H168.977L165.938 70.5087V86.9053H176.332C180.961 86.9053 183.424 85.4338 183.424 82.0529Z" fill="white"/>
<path d="M302.266 54.3399H311.175V86.3448H327.211L330.495 93.7898H305.829L302.266 84.9609V54.3399Z" fill="white"/>
<path d="M225.926 86.4499V93.7723H199.653L196.107 84.9433V54.3399H225.21V61.6623H204.963V70.2285H221.402V77.3231H207.986L204.963 70.2285V86.4499H225.926Z" fill="white"/>
<path d="M298.545 86.4499V93.7723H272.271L268.725 84.9433V54.3399H297.828V61.6623H277.582V70.2285H294.02V77.3231H280.604L277.582 70.2285V86.4499H298.545Z" fill="white"/>
<path d="M265.004 54.3399V93.7723H257.685L238.451 69.8256V93.7723H229.647V54.3399H237.036L256.2 78.2866V54.3399H265.004Z" fill="white"/>
<path d="M327.927 75.9918V54.953H336.435V75.6589C336.435 82.7886 339.474 85.7491 344.61 85.7491C349.746 85.7491 352.803 82.8061 352.803 75.6589V54.953H361.188V75.9918C361.188 87.0454 355.004 93.1591 344.558 93.1591C334.112 93.1591 327.927 87.0454 327.927 75.9918Z" fill="white"/>
<path d="M391.253 93.7898L381.942 80.0909L372.805 93.7898H362.551L376.823 73.732L363.267 54.3574H373.399L382.274 67.1453L390.973 54.3574H400.616L387.182 73.3992L401.559 93.7898H391.253Z" fill="white"/>
<path d="M71.0464 55.1282H79.8333V86.6776H95.6427L98.8745 94H74.5751L71.0639 85.3112V55.1282H71.0464Z" fill="white"/>
<path d="M127.768 86.7827V94H101.861L98.3677 85.3112V55.1282H127.052V62.3455H107.102V70.7891H123.313V77.7786H110.089L107.102 70.7891V86.7827H127.768Z" fill="white"/>
<path d="M52.8787 55.1282H61.6656V94H52.8787V55.1282Z" fill="white"/>
<path d="M34.5886 94L34.5362 70.684L23.356 89.9009H19.3906L8.26282 71.192V94.0175H0V55.1282H7.26709L21.4868 79.2851L35.4969 55.1282H42.7116L42.8164 94H34.5711H34.5886Z" fill="white"/>
<path d="M72.3739 28.5013C72.077 28.8341 71.7625 29.1319 71.4481 29.4297C69.1596 31.4968 66.4345 32.5654 63.325 32.5654C56.2151 32.5654 51.1666 27.4502 51.1666 20.1103C51.1666 12.7704 56.2151 7.67275 63.325 7.67275C64.9322 7.67275 66.417 7.95304 67.7971 8.49609C69.6313 9.21431 71.2734 10.4055 72.7233 12.0697L76.0424 4.39694C75.8328 4.22177 75.6232 4.06411 75.3961 3.90645C72.0595 1.3839 67.7621 0.0175171 62.8883 0.0175171C51.0793 0.0175171 42.2749 8.4085 42.2749 20.1103C42.2749 31.8121 51.0618 40.2206 62.8184 40.2206C67.8844 40.2206 72.2691 38.8017 75.6581 36.1215L72.3739 28.5013Z" fill="white"/>
<path d="M29.9942 31.2165H18.3249L15.198 24.3846L9.01399 39.555H0L16.9274 0.665649H25.6095L42.5893 39.5374H33.3657L29.9942 31.199V31.2165ZM27.2341 24.3846L21.2073 9.49457L15.1805 24.3846H27.2167H27.2341Z" fill="white"/>
<path d="M112.378 32.3201V39.5374H86.4713L82.9775 31.4968V0.665649H111.662V7.88294H91.6946V16.3265H107.906V23.316H94.6817L91.6946 16.3265V32.3201H112.36H112.378Z" fill="white"/>
<path d="M323.822 7.9355V0.525513H302.877H295.593V30.8662L300.309 39.0645H302.877H323.822V31.6545H304.327V23.5087H321.586V16.0812H304.327V7.9355H323.822Z" fill="white"/>
<path d="M279.835 30.2881V0.525513H271.083V30.8662L275.818 39.0645H278.158H279.835H297.427L292.378 30.2881H279.835Z" fill="white"/>
<path d="M190.272 0.525513H186.499H181.52L168.646 39.0645H177.397L188.385 6.16621L193.976 22.9307H182.795L187.075 30.3406H196.456L199.373 39.0645H208.125L195.251 0.525513H190.272Z" fill="white"/>
<path d="M165.484 19.0768C167.003 17.1323 167.929 14.6798 167.929 12.0171C167.929 5.67572 162.793 0.525513 156.47 0.525513H145.883H137.533V30.8662L142.25 39.0645H145.883H157.797C164.121 39.0645 169.257 33.9143 169.257 27.5728C169.257 24.2094 167.789 21.1789 165.484 19.0768ZM160.54 12.0171C160.54 14.2594 158.723 16.0812 156.487 16.0988H146.303V7.9355H156.487C158.723 7.9355 160.557 9.75734 160.557 12.0171H160.54ZM157.815 31.6545H146.303V23.5087H156.487H157.815C160.051 23.5087 161.885 25.3306 161.885 27.5904C161.885 29.8501 160.068 31.672 157.815 31.672V31.6545Z" fill="white"/>
<path d="M238.032 38.644C238.032 38.644 237.945 38.644 237.893 38.644C237.84 38.644 237.805 38.644 237.753 38.644C237.666 38.644 237.561 38.6265 237.473 38.5739C237.456 38.5739 237.421 38.5564 237.403 38.5389C237.281 38.4688 237.159 38.3813 237.089 38.2586C236.687 37.7331 236.46 37.1375 236.32 36.5244C236.181 35.9113 236.128 35.2631 236.041 34.6149C236.041 34.5449 236.006 34.4923 235.988 34.4222C235.831 33.7741 235.22 33.2486 235.167 32.9157C235.115 32.5303 235.447 32.1099 235.866 31.9523C236.076 31.8647 236.32 31.8296 236.53 31.9172C236.757 32.0048 237.159 31.6895 237.491 31.4092C238.574 30.726 239.028 29.9728 239.797 28.694C240.391 27.713 241.351 25.9787 242.644 25.5233C240.897 24.8751 239.255 24.1569 237.613 23.4737C237.211 23.2985 236.932 23.4036 236.67 23.7365C236.495 23.9642 236.338 24.1744 236.163 24.4021C235.989 24.6299 235.831 24.8401 235.657 25.0503C235.657 25.0503 235.657 25.0152 235.657 24.9977C234.643 26.0838 233.543 27.0648 232.46 28.0984C232.46 28.0984 232.46 28.0984 232.46 28.1159C232.425 28.1334 232.39 28.1684 232.355 28.1859C231.621 28.7465 230.835 29.3071 230.101 29.7801C229.141 30.3932 228.494 30.9713 228.407 31.0589C227.324 32.0749 226.084 32.8807 224.896 33.7741C223.306 34.9653 222.922 35.8237 222.834 36.1915C222.834 36.2441 222.782 36.4193 222.782 36.4718C222.73 36.6295 222.834 36.3842 222.782 36.4718C222.782 36.4718 222.782 36.4718 222.782 36.4893C222.345 37.3302 222.066 38.1886 222.188 39.082H234.748C234.416 39.0469 234.137 38.9769 234.049 38.8717C234.015 38.8367 233.892 38.6966 233.875 38.6615C233.718 38.3813 233.7 38.1185 233.84 37.8207C233.962 37.5754 234.137 37.3827 234.224 37.1375C234.311 36.8922 234.364 36.6295 234.364 36.3667C234.381 35.8587 234.277 35.3507 234.224 34.8427C234.102 33.7391 233.508 32.4603 233.141 31.4267C232.757 30.3056 232.53 29.4823 232.495 28.4137C233.735 27.6604 234.923 26.732 235.796 25.5583C235.831 25.8035 235.831 26.0663 235.884 26.5393C235.936 26.9597 235.901 28.0984 235.919 28.3786C235.954 29.6574 235.919 30.2706 235.901 31.3391C235.901 31.4092 235.901 31.4618 235.901 31.5143C235.22 31.6194 234.591 32.1975 234.643 33.0033C234.801 33.7916 235.395 34.0193 235.534 34.7551C235.779 36.139 236.216 38.5564 237.893 38.8542C238.487 38.8542 238.556 38.3112 238.504 37.7681C238.434 37.7331 238.364 37.7156 238.294 37.6805C238.382 38.1185 238.382 38.5739 238.05 38.644H238.032Z" fill="white"/>
<path d="M220.144 37.7156C220.074 36.7521 219.76 36.1916 219.585 35.2456C219.48 34.6325 219.969 34.177 220.563 34.0719C220.913 34.0194 221.577 33.7916 221.891 33.634C222.223 33.4588 222.799 32.9858 223.096 32.7406C223.725 32.215 224.179 31.5143 224.599 30.7961C224.843 30.3757 225.14 29.7626 225.332 29.4472C225.437 29.2896 225.559 29.1319 225.682 28.9918C225.734 28.9217 225.804 28.8692 225.856 28.8166C225.909 28.7641 225.961 28.729 225.996 28.6765C226.712 28.0633 227.603 27.8006 228.582 27.4327C229.245 27.0123 229.525 26.3291 229.839 25.751C230.101 25.0328 230.521 24.4197 230.975 23.8241C231.743 22.808 232.599 21.8796 232.949 20.6008C233.158 19.9001 233.089 19.1643 233.263 18.6563C233.386 18.1658 233.613 17.868 233.875 17.6053C234.469 17.0447 235.307 16.7644 235.779 15.7484C235.884 15.3805 235.866 15.0302 235.761 14.7324C235.604 14.2419 235.237 13.839 234.975 13.5762C231.953 10.3179 232.879 9.19678 234.835 8.07564C235.901 7.46252 237.246 6.8494 238.469 5.88593C238.591 5.81586 238.714 5.74579 238.818 5.69324C239.517 5.25529 239.5 4.58962 238.976 3.60863C238.644 2.99551 238.521 2.11962 238.696 1.47147C238.801 1.08608 238.958 0.770761 239.133 0.525513H234.696C235.028 0.753243 235.325 1.08608 235.587 1.54154C236.39 2.94296 236.443 4.36189 235.919 5.76331C235.761 6.16621 235.587 6.58664 235.08 6.62167C234.993 6.62167 234.678 6.58664 234.556 6.49905C234.504 6.72678 234.591 7.12969 234.713 7.6377C234.172 7.86543 233.648 8.11068 233.193 8.51359C232.634 8.95153 232.215 9.77486 232.337 10.5281C232.425 12.1923 233.945 13.4886 234.626 14.5222C234.469 14.9075 234.189 15.5907 233.979 16.4141C233.875 16.4666 233.77 16.5192 233.63 16.5717C231.726 17.868 232.722 20.4782 231.342 22.0373C231.027 22.3175 230.765 22.6854 230.538 23.0533C230.294 22.5978 230.259 22.5277 229.997 23.0533C229.088 24.805 227.498 25.5933 226.241 27.0824C225.612 27.8181 225.088 27.9758 224.162 27.5904C222.328 26.8196 220.424 26.0838 218.747 24.9977C217.663 24.297 216.563 24.1569 216.161 24.4021C216.074 24.4547 215.899 24.4197 215.637 24.4372C215.113 24.4547 214.327 24.5948 213.855 24.8401C213.401 25.0678 212.999 25.1379 212.79 24.9452C212.65 24.8226 212.37 24.5773 212.79 23.9992C213.593 22.8956 214.467 22.9657 214.816 22.738C215.497 22.3175 215.672 21.9672 216.144 21.7219C216.947 21.284 217.506 21.5468 217.786 22.4051C217.908 22.7029 220.598 22.6504 222.188 23.5087C222.205 23.5087 223.114 24.0518 223.288 24.1744C224.232 24.6474 224.843 24.4547 225.158 23.3861C225.385 22.5978 225.664 21.827 226.031 21.0913C226.188 20.7935 226.346 20.4957 226.485 20.1979C226.573 20.0227 226.643 19.8475 226.712 19.6724C226.852 19.2519 226.765 18.7614 226.87 18.3235C226.974 17.8856 227.149 17.4476 227.464 17.0973C227.673 16.8695 227.9 16.6944 228.197 16.5367C228.407 16.4316 228.826 16.2739 228.966 16.0988C229.595 15.3105 229.612 12.6478 229.612 12.5777C228.599 12.2098 227.586 11.1938 226.817 10.4756C226.52 10.2128 226.695 9.93252 226.852 9.66975C227.114 9.19678 227.638 8.74132 228.127 8.39096C228.547 8.09316 229.315 7.70777 229.839 7.49756C230.416 7.25231 230.87 7.0421 230.87 7.0421C231.272 6.8494 231.691 6.65671 231.988 6.30635C232.215 6.02607 232.302 5.71075 232.32 5.3604C232.32 5.3604 231.796 4.65969 231.656 4.32685C231.429 3.76629 231.429 3.41593 231.429 3.41593L231.272 3.53856C231.272 3.92395 231.219 4.30934 231.097 4.69473C230.8 5.6582 230.014 6.49905 229.053 6.79685C228.913 6.83189 228.774 6.86692 228.651 6.90196C228.582 6.90196 228.337 6.97203 228.25 6.97203C228.285 6.93699 228.529 6.65671 228.582 6.65671C225.734 6.77933 225.332 7.81288 225.21 7.9355C225.035 7.02458 224.878 5.48302 226.433 4.1692C225.699 4.22175 224.965 5.09763 224.965 5.09763C224.965 5.09763 225.21 3.13565 227.603 2.66267C227.533 2.4875 227.516 2.34735 227.551 2.18969C228.477 2.99551 229.472 1.97948 230.538 2.57508C230.94 2.80281 231.272 2.54005 231.307 2.04955C231.377 1.36636 231.778 0.840831 232.407 0.525513H197.33L199.531 8.8289H206.361L211.235 8.84642V39.0645H220.528C220.319 38.6616 220.179 38.2236 220.144 37.7156Z" fill="white"/>
<path d="M243.133 0.525513C243.605 0.980973 243.954 1.54154 244.059 2.11962C244.269 3.15317 244.373 3.94147 244.059 5.25529C243.989 5.53558 243.692 5.83338 243.43 5.956C243.116 6.11366 242.784 6.07863 242.487 6.2538C242.26 6.37643 242.067 6.56912 241.963 6.81437C241.736 7.28735 241.805 7.86543 242.033 8.32089C242.574 9.49458 242.801 10.7208 242.626 11.9821C242.155 13.7689 241.229 15.328 240.583 17.0622C240.321 17.7629 239.989 18.5162 240.618 19.0943C241.194 19.6373 241.945 19.9176 242.626 20.268C243.902 20.9161 245.002 21.8446 245.893 22.9482C246.085 23.1934 246.347 23.4912 246.574 23.8065C247.099 24.5072 247.518 25.3481 247.116 26.1364C246.487 27.3802 245.177 28.186 244.129 29.0443C243.448 29.6049 242.749 30.0954 241.998 30.5509C240.687 31.3392 239.831 32.0048 239.115 33.0384C239.168 33.0033 239.203 32.9508 239.255 32.9158C239.115 33.2661 238.609 34.4223 238.644 34.2296C238.696 35.2982 238.102 36.0689 238.382 37.0674C238.416 37.2601 238.469 37.5229 238.504 37.7857C238.713 37.8733 238.906 37.9433 239.115 37.9959C239.342 38.066 239.657 38.0835 239.831 38.2762C239.919 38.3638 240.006 38.5214 239.971 38.6616C239.919 38.8718 239.779 38.9944 239.657 39.0995H256.864V8.86394H268.935V0.560548L243.151 0.54303L243.133 0.525513ZM247.291 11.3339C247.273 11.5792 247.203 11.8069 247.029 11.9996C246.802 12.2449 246.557 12.4726 246.243 12.6127C245.876 12.7704 245.701 12.8755 245.387 13.1032C245.317 13.1558 243.692 14.9601 242.26 15.5382C242.085 15.6083 241.823 15.6783 241.613 15.6958C242.137 14.89 242.557 14.0141 242.749 13.0857C242.836 13.0332 242.941 12.9631 243.011 12.9105C243.372 12.677 243.867 12.385 244.496 12.0346C244.705 11.8595 244.793 11.7018 244.758 11.4566C244.723 11.2639 244.723 11.1237 244.723 10.931C244.723 10.3705 245.16 9.915 245.526 9.52961C245.579 9.47706 245.614 9.42451 245.684 9.40699C245.736 9.37195 245.823 9.37195 245.876 9.40699C246.103 9.59968 245.719 10.1077 245.631 10.3004C245.631 10.3179 245.614 10.3529 245.631 10.3705C245.649 10.423 245.718 10.3705 245.753 10.3705C245.981 10.1778 246.225 9.98507 246.47 9.8099C246.574 9.73983 246.697 9.66975 246.819 9.68727C247.343 9.77486 247.326 10.9661 247.291 11.3515V11.3339Z" fill="white"/>
<path d="M133.882 71.3496H148.381V77.7786H133.882V71.3496Z" fill="white"/>
</g>
<defs>
<clipPath id="clip0_85_1019">
<rect width="532" height="94" fill="white"/>
</clipPath>
</defs>
</svg>
