<svg width="221" height="82" viewBox="0 0 221 82" fill="none" xmlns="http://www.w3.org/2000/svg">
    <g clip-path="url(#clip0_9_92)">
        <path d="M39.5486 15.5606C39.3928 15.7392 39.2148 15.9178 39.0367 16.0741C37.7904 17.2126 36.2992 17.7931 34.6078 17.7931C30.7353 17.7931 27.9756 15.0024 27.9756 10.9839C27.9756 6.96542 30.7353 4.19711 34.6078 4.19711C35.4758 4.19711 36.2992 4.35339 37.0559 4.64361C38.0575 5.02314 38.9477 5.69289 39.7489 6.5859L41.5516 2.38878C41.4403 2.29948 41.3291 2.21018 41.1955 2.12088C39.3705 0.736727 37.0337 0 34.363 0C27.9088 0 23.1016 4.57664 23.1016 10.9839C23.1016 17.3912 27.9088 21.9679 34.3185 21.9679C37.0782 21.9679 39.4818 21.1865 41.3291 19.713L39.5486 15.5382V15.5606Z" fill="white"/>
        <path d="M16.3803 17.0563H9.99285L8.27915 13.328L4.89627 21.6106H0L9.23615 0.357178H13.9766L23.2573 21.6106H18.2275L16.3803 17.0563ZM14.8669 13.328L11.573 5.20172L8.27915 13.328H14.8669Z" fill="white"/>
        <path d="M61.4036 17.6591V21.6106H47.249L45.335 17.2126V0.357178H61.003V4.30872H50.0977V8.93001H58.9555V12.7476H51.7224L50.0977 8.93001V17.6814H61.3814L61.4036 17.6591Z" fill="white"/>
        <path d="M107.54 75.7043C107.384 75.8829 107.206 76.0392 107.028 76.1955C105.804 77.3117 104.335 77.8698 102.666 77.8698C98.8603 77.8698 96.1451 75.1238 96.1451 71.1946C96.1451 67.2654 98.8603 64.5194 102.666 64.5194C103.534 64.5194 104.335 64.6757 105.07 64.9659C106.049 65.3455 106.939 65.9929 107.718 66.8859L109.499 62.7558C109.387 62.6665 109.276 62.5772 109.165 62.4879C107.362 61.126 105.07 60.4116 102.443 60.4116C96.1005 60.4116 91.3823 64.9213 91.3823 71.1946C91.3823 77.468 96.1005 82 102.399 82C105.114 82 107.473 81.2409 109.276 79.7898L107.518 75.7043H107.54Z" fill="#D33F30"/>
        <path d="M16.358 77.4456H9.99285L8.27915 73.7173L4.89627 81.9999H0L9.23615 60.7688H13.9766L23.235 81.9999H18.2052L16.3803 77.4456H16.358ZM14.8446 73.7173L11.5508 65.591L8.2569 73.7173H14.8224H14.8446Z" fill="#D33F30"/>
        <path d="M138.075 77.4456H131.71L129.996 73.7173L126.613 81.9999H121.695L130.931 60.7688H135.671L144.93 81.9999H139.9L138.075 77.4456ZM136.561 73.7173L133.268 65.591L129.974 73.7173H136.539H136.561Z" fill="#D33F30"/>
        <path d="M164.114 60.7688L162.378 64.765H155.946V81.9999H151.139V64.765H144.729L142.971 60.7688H164.114Z" fill="#D33F30"/>
        <path d="M114.15 60.7688H118.957V81.9999H114.15V60.7688Z" fill="#D33F30"/>
        <path d="M165.672 60.7688H170.479V81.9999H165.672V60.7688Z" fill="#D33F30"/>
        <path d="M221 60.7688V81.9999H217.061L206.712 69.1184V81.9999H201.971V60.7688H205.933L216.237 73.6504V60.7688H220.978H221Z" fill="#D33F30"/>
        <path d="M65.0315 71.016C65.0315 64.9213 69.683 60.4116 76.0036 60.4116C82.3242 60.4116 86.9757 64.899 86.9757 71.016C86.9757 77.1331 82.302 81.6204 76.0036 81.6204C69.7052 81.6204 65.0315 77.1108 65.0315 71.016ZM82.2797 71.016C82.2797 67.1091 79.5868 64.4525 76.0036 64.4525C72.4204 64.4525 69.7275 67.1091 69.7275 71.016C69.7275 74.9229 72.4204 77.5796 76.0036 77.5796C79.5868 77.5796 82.2797 74.9229 82.2797 71.016Z" fill="#D33F30"/>
        <path d="M175.131 71.016C175.131 64.9213 179.782 60.4116 186.103 60.4116C192.424 60.4116 197.075 64.899 197.075 71.016C197.075 77.1331 192.401 81.6204 186.103 81.6204C179.805 81.6204 175.131 77.1108 175.131 71.016ZM192.379 71.016C192.379 67.1091 189.686 64.4525 186.103 64.4525C182.52 64.4525 179.827 67.1091 179.827 71.016C179.827 74.9229 182.52 77.5796 186.103 77.5796C189.686 77.5796 192.379 74.9229 192.379 71.016Z" fill="#D33F30"/>
        <path d="M25.2825 79.6112L26.8626 76.0392C28.5541 77.2894 31.069 78.1824 33.4726 78.1824C36.2323 78.1824 37.3451 77.2447 37.3451 75.9945C37.3451 72.1546 25.6831 74.789 25.6831 67.1761C25.6831 63.6934 28.4428 60.7911 34.1403 60.7911C36.6552 60.7911 39.2369 61.4162 41.1063 62.5995L39.682 66.2161C37.8125 65.1222 35.8985 64.6087 34.118 64.6087C31.3583 64.6087 30.3123 65.658 30.3123 66.9529C30.3123 70.7258 41.9743 68.1361 41.9743 75.6596C41.9743 79.0977 39.1923 82.0223 33.4726 82.0223C30.29 82.0223 27.0852 81.0623 25.3047 79.6558L25.2825 79.6112Z" fill="#D33F30"/>
        <path d="M44.8899 79.6112L46.4701 76.0392C48.1615 77.2894 50.6764 78.1824 53.08 78.1824C55.8397 78.1824 56.9525 77.2447 56.9525 75.9945C56.9525 72.1546 45.2905 74.789 45.2905 67.1761C45.2905 63.6934 48.0502 60.7911 53.7477 60.7911C56.2626 60.7911 58.8443 61.4162 60.7138 62.5995L59.2894 66.2161C57.4199 65.1222 55.5059 64.6087 53.7254 64.6087C50.9657 64.6087 49.9197 65.658 49.9197 66.9529C49.9197 70.7258 61.5817 68.1361 61.5817 75.6596C61.5817 79.0977 58.7998 82.0223 53.08 82.0223C49.8974 82.0223 46.6926 81.0623 44.9121 79.6558L44.8899 79.6112Z" fill="#D33F30"/>
        <path d="M103.378 34.8942V30.764H91.7605H87.71V47.5971L90.3361 52.1515H91.7605H103.378V48.0436H92.584V43.534H102.132V39.4038H92.584V34.8942H103.378Z" fill="white"/>
        <path d="M78.9858 47.2846V30.764H74.134V47.5971L76.738 52.1515H78.051H78.9858H88.7338L85.9296 47.2846H78.9858Z" fill="white"/>
        <path d="M29.2886 30.764H27.1966H24.4368L17.2927 52.1515H22.1445L28.2426 33.8895L31.3361 43.1991H25.149V43.2214L27.5081 47.3292H32.716L34.3407 52.1515H39.1924L32.0483 30.764H29.2886Z" fill="white"/>
        <path d="M15.5345 41.0782C16.3802 39.9843 16.8921 38.6448 16.8921 37.149C16.8921 33.644 14.0434 30.764 10.5269 30.764H4.65142H0.0222168V47.5971L2.6484 52.1515H4.65142H11.2614C14.7555 52.1515 17.6265 49.2938 17.6265 45.7665C17.6265 43.8912 16.8253 42.2168 15.5345 41.0559V41.0782ZM12.797 37.149C12.797 38.3992 11.7955 39.4038 10.5492 39.4038H4.87398V34.8719H10.5269C11.7733 34.8719 12.7748 35.8765 12.7748 37.1267L12.797 37.149ZM11.2836 48.0436H4.87398V43.5117H10.5269H11.2614C12.5077 43.5117 13.5092 44.5163 13.5092 45.7665C13.5092 47.0167 12.5077 48.0213 11.2614 48.0213L11.2836 48.0436Z" fill="white"/>
        <path d="M33.4727 30.764L34.6967 35.363H38.5025V35.3853H41.1954V52.1515H45.0012H49.8529H61.6707H66.5225V35.3853H73.2215V35.363V30.764H33.4727Z" fill="#BE3828"/>
        <path d="M57.0639 51.7049C57.0639 51.7049 56.7968 51.5933 56.6633 51.5486C56.1737 51.4147 55.684 51.1021 55.3057 50.9235C55.1722 50.8565 55.0831 50.7226 55.0609 50.5886C54.9273 49.651 54.8606 48.825 54.8828 47.865C54.8828 47.2622 54.9051 46.9273 54.8828 46.2129C54.8828 46.0567 54.8828 45.4315 54.8828 45.186C54.8161 44.6725 54.8606 44.6055 54.727 44.159C54.6825 43.9804 54.638 43.8241 54.6158 43.6902C54.3709 42.5516 54.2151 41.3684 53.7255 40.0959C53.8368 39.3591 54.1261 38.6894 54.2374 38.4438C54.3932 38.3991 54.5045 38.5554 54.6825 38.6001C55.0609 38.7117 55.4392 38.8233 55.8176 38.935C56.2627 39.0689 56.4852 38.935 56.4852 38.4661C56.4852 38.2875 56.5075 38.2652 56.6188 38.2875C56.3517 37.7517 56.1959 37.4168 56.2627 37.5061C55.9734 37.5731 55.0831 37.7741 54.3709 37.6624C54.3709 37.6624 54.3709 37.6624 54.3709 37.6178C54.3709 37.5954 54.3709 37.5731 54.3932 37.5285C54.3932 37.5061 54.3932 37.4615 54.3932 37.4392C54.4822 37.0373 54.6603 36.1666 54.46 35.4969C54.2819 34.8495 54.1039 34.3137 54.1484 34.0681C54.2152 34.1127 54.3932 34.1351 54.4377 34.1351C54.727 34.1351 54.8161 33.8895 54.9051 33.6662C55.1944 32.8849 55.1721 32.1035 54.727 31.3221C54.4377 30.8086 54.0594 30.5407 53.5252 30.5854C52.813 30.6524 52.3679 31.0542 52.3234 31.6123C52.3012 31.8802 52.1231 32.0365 51.9005 31.9026C51.3219 31.5677 50.7655 32.1258 50.2536 31.6793C50.2314 31.7686 50.2536 31.8579 50.2759 31.9472C48.9405 32.1928 48.807 33.2867 48.807 33.2867C48.807 33.2867 49.2076 32.8179 49.6082 32.7732C48.7402 33.51 48.8293 34.3583 48.9405 34.8718C49.0073 34.8048 49.2299 34.2244 50.81 34.1574C50.7878 34.1574 50.6542 34.3137 50.632 34.336C50.6765 34.336 50.81 34.3137 50.8545 34.2913C50.9213 34.2913 51.0103 34.2467 51.0771 34.2244C51.6112 34.0458 52.0341 33.5769 52.2121 33.0635C52.2789 32.8625 52.3012 32.6393 52.3012 32.416L52.3902 32.3491C52.3902 32.3491 52.3902 32.55 52.5237 32.8625C52.5905 33.0411 52.8798 33.443 52.8798 33.443C52.8798 33.6439 52.813 33.8225 52.7018 33.9788C52.546 34.1797 52.3012 34.2913 52.0786 34.3806C52.0786 34.3806 51.8338 34.4923 51.4999 34.6262C51.2106 34.7378 50.7878 34.9611 50.5652 35.1174C50.2981 35.3183 50.0088 35.5639 49.853 35.8318C49.764 35.988 49.675 36.1443 49.853 36.2783C50.2759 36.6801 50.8545 37.2382 51.4109 37.4392C51.4109 37.4838 51.4109 38.9573 51.0548 39.4038C50.9881 39.4931 50.7432 39.5824 50.632 39.6494C50.4762 39.7387 50.3426 39.828 50.2314 39.9619C50.0533 40.1405 49.9643 40.3861 49.8975 40.6317C49.8308 40.8772 49.8975 41.1451 49.8085 41.3684C49.764 41.4577 49.7195 41.5693 49.675 41.6586C49.5859 41.8372 49.4969 41.9935 49.4302 42.1498C49.2299 42.5516 49.0741 42.9981 48.9405 43.4223C48.7625 44.0251 48.4286 44.1367 47.9168 43.8688C47.8277 43.8018 47.3159 43.5116 47.3159 43.5116C46.4256 43.0428 44.9345 43.0651 44.8677 42.9088C44.7119 42.4177 44.4003 42.2837 43.9552 42.5293C43.6882 42.6632 43.5991 42.8642 43.2208 43.0874C43.0205 43.199 42.5531 43.1767 42.0857 43.7795C41.8409 44.1144 41.9967 44.226 42.0857 44.293C42.197 44.3823 42.4196 44.3599 42.6867 44.226C42.9537 44.092 43.3766 44.0251 43.6659 44.0027C43.7994 44.0027 43.9107 44.0027 43.9552 44.0027C44.1778 43.8688 44.7787 43.9581 45.3796 44.3376C46.3143 44.9404 47.3604 45.3422 48.3841 45.7664C48.896 45.9897 49.1853 45.9004 49.5414 45.4762C50.2314 44.6502 51.1216 44.2037 51.6335 43.2437C51.7893 42.9311 51.7893 42.9758 51.9673 43.3107C52.546 44.3823 52.6127 44.3376 52.9021 44.8288C52.9466 44.9181 52.9911 45.0743 52.9911 45.1636C52.9911 45.4092 52.9911 45.7218 52.9911 45.9674C52.9688 46.7041 53.1024 47.1729 53.3472 47.8873C53.5475 48.4678 53.8813 49.1822 53.9481 49.7849C53.9703 50.0752 54.0371 50.3431 54.0371 50.6333C54.0371 50.7672 54.0148 50.9235 53.9481 51.0575C53.9036 51.1914 53.8145 51.303 53.7255 51.437C53.6365 51.5933 53.6588 51.7495 53.7255 51.9058C53.7255 51.9281 53.8145 51.9951 53.8368 52.0174C53.9258 52.1291 54.3487 52.1514 54.638 52.1737C54.9941 52.1737 55.3502 52.1961 55.684 52.33C55.9288 52.4193 56.2182 52.4193 56.4852 52.3746C56.6188 52.3523 56.7523 52.2853 56.8636 52.2184C56.9526 52.1514 57.0861 52.0621 57.1307 51.9058C57.1307 51.8388 57.1084 51.7495 57.0416 51.7049H57.0639Z" fill="white"/>
        <path d="M60.8028 43.6902C60.6693 43.5116 60.5358 43.3553 60.4245 43.2214C59.9349 42.5963 59.3117 42.0828 58.5995 41.7256C58.2212 41.5247 57.7983 41.3684 57.4867 41.0782C57.1306 40.7433 57.3309 40.3415 57.4867 39.9396C57.5535 39.7387 57.6425 39.5601 57.7315 39.3591C57.776 39.2698 57.7983 39.1582 57.9541 39.1805C58.0654 39.1805 58.2879 39.1582 58.4215 39.0913C59.2227 38.7787 60.1129 37.7741 60.1574 37.7517C60.3355 37.6178 60.4245 37.5731 60.6248 37.4838C60.8028 37.4169 60.9364 37.2829 61.0699 37.149C61.1589 37.0373 61.2034 36.9257 61.2034 36.7694C61.2034 36.5462 61.2257 35.8988 60.9364 35.8541C60.8696 35.8541 60.8028 35.8764 60.7361 35.9211C60.6025 36.0104 60.469 36.122 60.3355 36.2336C60.3355 36.2336 60.2687 36.2783 60.2687 36.2336C60.2687 36.2336 60.2687 36.2113 60.2687 36.189C60.3132 36.0774 60.5135 35.8095 60.4022 35.6978C60.38 35.6755 60.3355 35.6755 60.291 35.6978C60.2464 35.7202 60.2242 35.7425 60.2019 35.7648C60.0016 35.9657 59.7568 36.2336 59.7568 36.5462C59.7568 36.6578 59.7568 36.7248 59.7791 36.8364C59.8013 36.9704 59.7568 37.0597 59.6455 37.149C59.3043 37.3425 59.0298 37.5062 58.8221 37.6401C58.8221 37.6401 58.5995 37.7964 58.5327 37.7741C58.4215 37.7294 58.5327 37.5508 58.5327 37.4615C58.733 36.6355 58.5995 35.8541 58.2657 35.0951C58.1544 34.8272 58.1099 34.5146 58.2212 34.2467C58.2879 34.1128 58.377 34.0011 58.5105 33.9342C58.6885 33.8449 58.8666 33.8672 59.0446 33.7779C59.2004 33.7109 59.3562 33.5546 59.4007 33.3984C59.5788 32.6616 59.512 32.2375 59.4007 31.657C59.2672 31.0542 58.7108 30.4291 57.9763 30.3175C57.3087 30.2282 56.6855 30.4291 56.4407 31.2998C56.3517 31.657 56.3962 32.1482 56.5965 32.483C56.8858 33.0188 56.8858 33.3984 56.5075 33.6439C56.2404 33.8002 55.862 33.9565 55.4614 34.3137C54.9718 34.5816 53.3471 34.9611 53.1468 35.8541C52.9465 36.7248 54.1038 38.1536 54.3487 38.3322C54.5935 38.5108 54.9273 39.1582 54.1484 39.6271C53.3471 40.0959 53.1468 40.654 53.1246 41.2345C53.1023 41.8149 52.9911 42.5516 52.4792 43.0205C51.9673 43.4893 51.3664 45.3423 50.6319 45.7218C50.6319 45.7218 49.5191 46.0343 49.0073 46.8381C48.896 47.0167 48.7402 47.3515 48.6067 47.5971C48.3841 47.999 48.117 48.3785 47.7832 48.6687C47.6274 48.8027 47.2936 49.0706 47.1155 49.1599C46.9375 49.2492 46.5814 49.3608 46.3811 49.4054C46.0472 49.4724 45.7802 49.718 45.8247 50.0529C45.9137 50.5887 46.0918 50.9012 46.1363 51.437C46.1808 52.0621 46.4701 52.5309 46.982 52.8881C47.0933 52.9551 47.2713 52.9998 47.4048 52.9328C47.4716 52.8881 47.4716 52.8212 47.4494 52.7542C47.1155 52.0621 47.2936 51.3924 47.6051 50.7449C47.6051 50.8342 47.6497 50.6556 47.6051 50.7449C47.6051 50.7226 47.6274 50.611 47.6497 50.5887C47.6942 50.3877 47.9167 49.8966 48.7847 49.2492C49.4524 48.758 50.1423 48.3115 50.7432 47.7311C50.7877 47.6864 51.1438 47.3515 51.678 47.0167C52.813 46.3022 54.1706 45.1637 54.4822 44.7618C54.7715 44.4046 55.0386 44.0251 55.3279 43.6679C55.4614 43.4893 55.6172 43.4223 55.862 43.5339C56.7745 43.9135 57.687 44.3153 58.644 44.6725C57.9318 44.9181 57.3977 45.9004 57.0639 46.4362C56.552 47.2846 56.2849 47.7087 55.3947 48.1552C55.3279 48.1776 55.3057 48.1552 55.2389 48.1552C54.9718 48.0436 54.4822 48.2222 54.3709 48.6464C54.2819 48.9813 54.549 49.1375 54.6825 49.4054C54.9273 49.8073 54.816 50.0529 54.9718 50.6333C55.0831 51.0575 55.4392 52.1291 56.0624 51.9728C56.3739 51.8835 56.1291 51.1468 56.0624 50.9459C55.9733 50.5663 56.2849 49.8743 56.2627 49.5394C56.73 48.5348 57.2642 48.0883 58.2434 47.4855C58.6663 47.2399 59.0446 46.9497 59.423 46.6371C60.0016 46.1683 60.7361 45.7218 61.0922 45.0297C61.3147 44.5832 61.0922 44.1367 60.8028 43.7349V43.6902Z" fill="white"/>
        <path d="M56.374 33.7109C54.5045 35.3183 51.8338 35.1844 54.4377 37.975C54.6825 38.2206 55.0832 38.6671 54.9051 39.2475C54.638 39.9843 53.681 40.0736 53.503 40.8549C53.414 41.1228 53.4362 41.5247 53.3249 41.9266C53.0134 43.0651 51.9896 43.7126 51.5667 44.7842C51.3887 45.0967 51.2329 45.4762 50.8546 45.7218C50.0979 46.012 49.4747 46.146 49.0073 46.8381C49.2744 46.146 50.0979 45.7441 50.6765 45.4539C51.1884 45.0074 51.2997 44.1591 51.678 43.5786C52.0119 42.9312 52.6128 42.4847 52.7463 41.7703C52.8353 41.4131 52.7908 41.0559 52.9021 40.6763C53.0134 40.2522 53.2804 39.8726 53.6143 39.6047C53.9704 39.3368 54.2819 39.2252 54.3265 39.0243C54.3932 38.868 54.2819 38.6001 54.0149 38.3545C52.7463 36.9927 52.1899 35.363 54.4155 34.5816C55.1722 34.403 55.7063 33.9788 56.4185 33.6886L56.374 33.7109Z" fill="#BE3828"/>
        <path d="M55.3725 43.6233C54.8828 44.9405 53.681 45.8558 52.5015 46.5032C53.503 45.5432 54.5267 44.7172 55.3725 43.6233Z" fill="#BE3828"/>
        <path d="M55.9956 47.7534L55.5505 48.0883C55.5505 48.0883 55.4169 48.2446 55.2389 48.1999C54.8605 48.066 54.4154 48.4232 54.4599 48.758C54.4599 48.8697 54.5935 49.0036 54.7047 49.1599C55.1944 49.9413 54.8828 51.0129 55.5282 51.7273C55.7063 52.0175 56.3072 52.0398 56.1514 51.6156C56.1291 51.437 56.0624 51.2808 56.0178 51.1022C55.7953 50.5887 56.1736 49.9636 56.1959 49.4724V49.4278C56.3739 49.2045 56.5075 48.8473 56.7078 48.7357C56.5965 49.0036 56.4852 49.2492 56.3517 49.5171V49.4724C56.3962 50.0529 56.0624 50.4994 56.2181 51.0575C56.2627 51.3254 56.3517 51.638 56.2181 51.9059C56.0178 52.1961 55.6172 51.9952 55.4392 51.7942C54.6825 51.0129 54.8828 50.0752 54.4377 49.3162C54.3487 49.1822 54.1929 49.0259 54.1484 48.7804C54.1038 48.1776 54.7715 47.7981 55.2611 48.0213C55.2834 48.066 55.3724 47.999 55.4392 47.9543L55.9288 47.7311L55.9956 47.7534Z" fill="#BE3828"/>
        <path d="M58.7331 36.6802C58.9112 37.8857 58.2435 39.069 57.4868 39.9396C57.9097 38.8457 58.5551 37.8634 58.7331 36.6802Z" fill="#BE3828"/>
    </g>
    <defs>
        <clipPath id="clip0_9_92">
            <rect width="221" height="82" fill="white"/>
        </clipPath>
    </defs>
</svg>
