<svg width="400" height="468" viewBox="0 0 400 468" fill="none" xmlns="http://www.w3.org/2000/svg">
<g clip-path="url(#clip0_157_188)">
<path d="M271.427 367.928C272.189 367.875 272.937 367.875 273.659 367.941C272.897 367.797 272.149 367.744 271.427 367.928Z" fill="#F3F3F3"/>
<path d="M206.373 281.71C203.13 286.533 200.229 291.553 198.103 296.992C200.965 291.972 203.708 286.677 206.373 281.71Z" fill="#F3F3F3"/>
<path d="M327.818 187.405C325.81 191.232 324.064 195.243 322.515 199.279C325.14 194.076 327.923 188.899 330.64 183.682C328.947 184.088 328.606 185.91 327.818 187.405Z" fill="#F3F3F3"/>
<path d="M265.468 21.2858C259.351 10.7609 251.593 5.08552 240.672 6.10787C225.8 7.51032 216.848 15.6105 215.666 27.2495C215.089 32.9118 211.295 35.8608 206.727 33.2657C194.533 26.332 183.06 37.9449 172.388 28.7568C171.916 30.7229 172.205 32.3088 172.992 34.2487C145.401 39.5177 142.539 62.1143 142.539 62.1143C142.539 62.1143 150.861 52.2053 159.367 51.5369C141.502 66.6755 143.235 84.4486 145.296 94.8163C146.753 93.4925 151.504 81.6175 184.228 80.202C183.73 80.2282 180.789 83.4132 180.422 83.7671C181.472 83.636 184.189 83.0855 185.029 82.902C186.617 82.5612 188.206 82.1549 189.755 81.6568C200.846 78.118 209.759 68.4974 213.251 57.5137C214.616 53.267 215.285 48.7844 215.233 44.328L217.084 42.9649C217.084 42.9649 217.071 47.028 219.67 53.4112C221.179 57.1074 227.257 65.1813 227.257 65.1813C227.139 69.1265 226.088 72.8358 223.516 76.047C220.234 80.1364 215.377 82.3646 210.717 84.5535C210.717 84.5535 205.414 86.8735 198.799 89.6784C192.958 92.1556 184.058 96.5989 179.175 100.033C173.53 103.991 167.61 109.221 164.539 114.608C162.727 117.793 160.745 120.847 164.145 123.927C173.124 132.093 184.806 143.771 196.436 148.057C196.37 148.935 196.305 179.383 188.967 188.453C187.353 190.445 182.575 192.254 180.12 193.434C176.681 195.085 174.056 197.222 171.706 199.791C168.175 203.657 166.18 208.703 164.946 213.802C163.738 218.835 164.788 224.406 163.108 229.242C162.373 231.313 161.428 233.345 160.483 235.324C158.829 238.784 156.952 242.153 155.219 245.574C150.927 254.028 147.658 262.875 145.099 271.997C141.633 284.383 134.48 286.572 123.663 281.08C121.642 279.744 111.246 273.675 110.996 273.544C92.7114 263.779 61.6938 264.277 60.2499 260.883C57.1127 250.908 50.5889 248.064 41.3348 252.992C35.9661 255.849 33.9184 259.965 26.0688 264.697C21.9734 267.161 12.0367 266.519 2.70385 279.088C-2.25792 285.786 0.958041 288.46 2.59884 289.915C4.93533 291.986 9.72646 291.238 14.8851 288.643C20.2407 285.93 29.3766 284.305 35.3885 284.056C38.3682 283.925 40.4684 284.305 41.466 283.689C46.0734 280.831 58.7403 282.575 71.171 290.518C90.5062 302.877 112.44 311.345 133.548 320.218C144.206 324.701 150.376 322.813 157.569 314.346C172.021 297.359 190.306 288.224 200.86 268.196C204.312 261.643 204.299 262.783 207.869 269.468C207.974 269.664 208.079 269.861 208.184 270.057C209.05 268.852 209.969 267.672 210.941 266.558C217.845 258.405 225.458 248.903 227.624 238.286C229.685 230.854 228.753 223.265 230.906 215.676C233.032 206.803 239.189 199.699 246.303 194.286C248.797 192.385 251.409 190.694 254.008 189.2C256.804 187.221 259.259 184.796 260.151 181.952C261.7 177.509 259.613 172.738 256.24 168.373C255.19 167.01 254.008 165.699 252.788 164.441C227.756 137.454 216.007 108.959 255.492 92.1163C253.825 85.9166 252.84 81.0408 253.444 78.1835C254.848 79.1141 258.537 79.6515 259.508 79.5859C265.494 79.1796 267.515 74.3038 269.248 69.6901C275.273 53.5947 274.827 37.3551 265.494 21.2989L265.468 21.2858Z" fill="#F3F3F3"/>
<path d="M293.348 446.95C288.216 448.208 284.015 445.639 280.655 441.524C281.075 442.087 281.521 442.651 281.981 443.188C284.934 446.976 292.442 450.306 295.737 445.626C295.881 445.22 295.973 444.801 296.065 444.381C295.579 445.679 294.713 446.609 293.335 446.95H293.348Z" fill="#F3F3F3"/>
<path d="M296.617 446.072C292.823 451.472 284.751 447.684 281.311 443.804C273.816 435.114 270.233 423.869 267.844 412.846C266.794 405.519 266.505 398.113 261.753 392.149C259.719 389.253 256.595 386.33 256.03 381.913C255.518 374.232 261.609 368.164 268.487 366.643C268.513 365.437 268.54 364.218 268.579 362.986C268.973 350.626 269.17 343.719 268.789 329C268.71 325.789 269.091 312.852 268.448 307.963C267.686 301.2 267.647 298.251 267.069 294.581C256.621 307.884 243.153 318.842 229.213 328.554C229.331 341.412 232.114 350.771 236.721 363.982C240.869 375.857 247.747 390.59 249.152 403.159C249.795 409.005 251.042 414.825 250.832 420.723C250.727 423.711 250.241 426.673 249.217 429.491C248.128 432.467 246.225 434.643 244.794 437.395C243.048 440.737 243.376 443.739 245.135 446.989C245.398 447.474 246.881 449.021 247.235 449.44C249.06 451.59 257.947 452.206 263.932 452.534C271.506 452.94 278.489 452.992 285.656 455.561C290.854 457.423 296.761 457.554 302.117 456.335C304.873 455.706 307.564 454.683 309.94 453.15C311.765 451.97 314.679 450.148 315.414 446.806C315.768 445.207 314.836 443.529 313.76 442.467C311.725 440.436 308.102 440.029 305.438 439.322C302.721 438.588 299.964 437.579 297.234 436.399C297.785 439.663 297.916 442.952 296.63 446.059L296.617 446.072Z" fill="#F3F3F3"/>
<path d="M266.623 292.09C266.544 291.737 266.465 291.37 266.387 290.976C264.405 293.532 262.423 296.075 260.414 298.592C256.358 303.677 243.809 314.844 229.226 326.116C229.226 326.444 229.213 326.798 229.2 327.126C242.444 316.234 255.518 305.053 266.623 292.09Z" fill="#F3F3F3"/>
<path d="M117.678 421.798C117.665 421.876 117.639 421.942 117.626 421.994C117.127 423.698 118.374 420.553 117.678 421.798Z" fill="#F3F3F3"/>
<path d="M394.382 114.687C392.951 114.464 391.573 115.29 390.378 116.102C387.49 118.068 384.708 120.192 382.03 122.459C381.597 122.826 380.822 123.154 380.56 122.643C380.428 122.394 380.533 122.105 380.638 121.856C381.518 119.694 385.915 113.874 383.395 111.672C382.817 111.174 381.938 111.174 381.229 111.489C380.533 111.803 379.982 112.367 379.457 112.917C375.335 117.229 370.269 122.577 370.269 128.947C370.347 131.306 370.334 132.801 370.767 135.068C371.279 137.794 370.203 139.708 367.788 141.687C360.638 145.768 354.95 149.132 350.723 151.78C349.293 152.671 347.324 154.073 345.932 154.466C343.136 164.729 338.319 174.507 332.753 183.735C335.037 183.892 339.33 182.935 341.942 181.886C358.429 175.228 377.226 154.571 377.961 154.008C381.57 151.229 383.513 150.141 387.753 148.306C391.363 146.746 394.277 144.269 396.836 141.359C398.753 139.184 399.54 136.575 399.803 133.718C400.223 129.301 400.459 115.657 394.369 114.687H394.382Z" fill="#F3F3F3"/>
<path d="M383.749 266.951C373.445 254.185 360.752 243.607 346.09 236.123C338.148 232.073 329.446 228.836 322.856 222.649C315.663 215.912 319.456 207.288 322.502 199.306C322.502 199.306 322.502 199.293 322.502 199.279C324.037 195.243 325.796 191.245 327.805 187.405C328.592 185.91 328.934 184.088 330.627 183.682C335.694 173.97 340.577 164.14 343.963 153.824C342.926 152.396 344.475 149.774 344.922 148.005C349.293 130.926 346.47 114.713 339.198 99.0237C336.731 93.6892 335.825 87.1225 338.463 81.67C339.763 78.9569 341.889 76.7811 344.502 75.2869C348.019 73.2946 351.931 73.6747 355.449 71.9577C358.468 70.4897 361.973 67.1736 362.76 63.9231C366.37 48.8631 365.149 39.8848 362.708 28.0229C360.109 15.3746 348.348 2.62145 333.2 0.445681C319.469 -1.53348 306.304 2.54281 301.263 20.5126C299.189 27.8787 300.554 37.9056 304.4 45.0096C310.465 56.2293 310.609 63.8707 302.589 68.9693C299.937 70.647 296.721 72.1805 293.138 74.1728C288.859 76.9253 284.868 80.071 280.773 83.2822C271.361 87.5813 263.144 91.4217 256.319 95.1703C228.504 110.44 223.778 124.15 256.594 160.968C259.574 163.982 262.711 167.77 264.522 171.978C266.085 175.621 266.662 179.58 265.284 183.656C262.593 192.136 253.825 195.164 247.97 200.105C246.776 201.01 245.673 201.966 244.649 202.976C237.981 209.529 234.699 218.311 234.502 227.853C233.991 247.068 221.77 260.673 210.98 275.248C209.405 277.371 207.856 279.534 206.386 281.723C203.734 286.69 200.978 291.986 198.116 297.006C197.932 297.491 197.736 297.962 197.565 298.447C194.126 305.106 190.87 312.76 183.808 317.308C176.891 320.113 169.829 322.669 163.463 326.169C157.464 329.799 151.163 334.832 146.95 341.465C144.587 345.2 141.213 352.173 138.417 356.97C133.692 365.097 128.441 373.157 121.169 379.226C117.862 381.992 111.141 387.51 107.308 389.489C103.751 391.324 96.0324 393.801 92.0813 394.47C85.1375 395.636 79.48 401.01 80.7139 407.996C82.6303 418.862 86.2663 425.402 87.1327 436.412C88.1565 449.519 94.024 459.009 104.473 466.283C106.704 467.843 110.681 468.786 113.372 467.174C114.947 466.231 114.803 464.972 114.081 463.465C107.164 449.021 110.668 435.259 117.533 422.099C117.599 421.981 117.652 421.889 117.691 421.811C117.888 421.09 118.321 419.255 118.347 418.77C119.384 414.615 123.873 404.68 142.119 391.009C155.836 380.799 170.17 371.532 182.653 359.841C183.756 358.805 191.199 352.173 202.225 345.226C211.019 339.682 220.484 332.893 229.226 326.143C243.809 314.87 256.358 303.703 260.414 298.618C262.422 296.088 264.404 293.545 266.386 291.003C270.272 285.996 274.118 280.936 277.951 275.89C280.878 272.05 284.133 271.014 288.819 272.954C307.774 280.779 326.531 289.05 346.759 296.547C331.835 301.816 320.716 321.739 313.943 332.971C303.363 350.482 297.903 359.33 279.158 368.701C278.121 369.225 277.36 369.003 276.52 368.688C275.575 368.491 274.604 368.164 273.658 367.98C272.936 367.902 272.201 367.902 271.427 367.967C271.414 367.967 271.388 367.967 271.374 367.967C270.377 368.046 269.406 368.242 268.46 368.531C268.25 386.147 269.786 401.587 272.162 419.242C272.569 422.256 274.551 424.852 277.268 426.228C282.545 428.902 288.898 432.663 295.488 435.652C294.963 433.607 294.306 431.576 293.781 429.636C289.397 418.704 297.05 406.961 297.338 396.344C299.452 391.874 302.221 386.697 305.372 382.883C313.615 370.772 323.591 363.262 338.844 354.047C347.442 348.857 355.554 343.129 363.312 336.746C375.322 326.877 390.483 317.662 397.729 303.415C402.323 294.397 397.453 284.842 391.507 276.716C388.882 273.125 386.06 269.822 383.736 266.951H383.749ZM296.59 148.975C296.59 148.975 296.511 149.001 296.472 149.001C296.301 148.581 296.328 148.542 296.59 148.975Z" fill="#F3F3F3"/>
<path d="M258.485 381.625C258.852 384.875 261.53 387.562 263.814 390.629C271.125 400.014 268.487 412.859 272.412 423.331C274.315 429.727 276.652 436.202 280.655 441.524C284.015 445.639 288.216 448.208 293.348 446.95C294.727 446.609 295.593 445.679 296.079 444.381C296.682 441.537 296.223 438.562 295.475 435.639C288.885 432.637 282.532 428.889 277.255 426.215C274.538 424.839 272.556 422.243 272.149 419.229C269.773 401.574 268.238 386.147 268.448 368.518C262.646 370.313 257.999 375.884 258.485 381.638V381.625Z" fill="#F3F3F3"/>
<path d="M296.473 149.003C296.473 149.003 296.552 148.977 296.592 148.977C296.327 148.554 296.301 148.581 296.473 149.003Z" fill="#F3F3F3"/>
<path d="M197.552 298.447C197.723 297.962 197.92 297.477 198.103 297.006C192.656 306.587 186.802 315.172 180.475 318.501C180.475 318.501 172.271 320.834 163.45 326.182C169.816 322.682 176.878 320.126 183.796 317.322C190.858 312.773 194.113 305.119 197.552 298.46V298.447Z" fill="#F3F3F3"/>
<path d="M219.381 335.186C222.662 333.037 225.957 330.822 229.212 328.554C229.212 328.082 229.199 327.61 229.212 327.125C225.944 329.826 222.649 332.499 219.394 335.186H219.381Z" fill="#F3F3F3"/>
<path d="M273.646 367.941C274.604 368.124 275.575 368.452 276.507 368.649C276.363 368.596 276.218 368.544 276.061 368.478C275.313 368.203 274.499 368.02 273.646 367.941Z" fill="#F3F3F3"/>
<path d="M268.447 368.505C269.392 368.216 270.377 368.006 271.361 367.941C271.374 367.941 271.401 367.941 271.414 367.941C270.442 368.02 269.445 368.19 268.447 368.478C268.447 368.491 268.447 368.505 268.447 368.531V368.505Z" fill="#F3F3F3"/>
<path d="M296.078 444.381C296.892 442.245 296.682 439.099 296.118 435.927C295.908 435.835 295.698 435.731 295.475 435.639C296.223 438.562 296.682 441.537 296.078 444.381Z" fill="#F3F3F3"/>
<path d="M330.64 183.682C327.923 188.899 325.154 194.076 322.515 199.279C322.515 199.279 322.515 199.279 322.515 199.293C326.02 194.312 329.525 189.122 332.767 183.748C332.583 183.748 332.412 183.721 332.255 183.695C331.612 183.577 331.087 183.59 330.653 183.695L330.64 183.682Z" fill="#F3F3F3"/>
</g>
<defs>
<clipPath id="clip0_157_188">
<rect width="400" height="468" fill="white"/>
</clipPath>
</defs>
</svg>
