<svg width="237" height="87" viewBox="0 0 237 87" fill="none" xmlns="http://www.w3.org/2000/svg">
<path d="M127.982 16.5214C127.808 16.7146 127.625 16.8907 127.434 17.0583C126.09 18.2605 124.497 18.8727 122.674 18.8727C118.511 18.8727 115.551 15.9057 115.551 11.6544C115.551 7.40306 118.511 4.44457 122.674 4.44457C123.612 4.44457 124.491 4.60361 125.295 4.9234C126.374 5.33554 127.336 6.03326 128.182 6.99092L130.124 2.53951C130.001 2.44032 129.877 2.34285 129.748 2.2505C127.79 0.788361 125.278 -0.00170898 122.418 -0.00170898C115.494 -0.00170898 110.344 4.86355 110.344 11.6544C110.344 18.4452 115.492 23.319 122.383 23.319C125.347 23.319 127.923 22.493 129.901 20.9386L127.98 16.5214H127.982Z" fill="#13131C"/>
<path d="M103.151 18.0998H96.3102L94.475 14.1392L90.8529 22.9308H85.5784L95.4934 0.386475H100.578L110.524 22.9291H105.122L103.153 18.0981L103.151 18.0998ZM101.531 14.1392L98.004 5.50825L94.4767 14.1392H101.531Z" fill="#13131C"/>
<path d="M151.422 18.7445V22.9308H136.244L134.199 18.2674V0.386475H151.01V4.57282H139.315V9.46885H148.813V13.5269H141.062L139.315 9.46885V18.7445H151.422Z" fill="#13131C"/>
<path d="M115.323 80.3238C115.153 80.5136 114.974 80.6863 114.786 80.8522C113.466 82.0322 111.903 82.6341 110.113 82.6341C106.025 82.6341 103.118 79.7218 103.118 75.5457C103.118 71.3696 106.025 68.4659 110.113 68.4659C111.033 68.4659 111.896 68.6232 112.685 68.9362C113.743 69.3397 114.688 70.0255 115.518 70.9661L117.426 66.595C117.305 66.4976 117.183 66.4018 117.057 66.3111C115.136 64.8747 112.668 64.1 109.859 64.1C103.06 64.1 98.004 68.878 98.004 75.5457C98.004 82.2134 103.06 87 109.827 87C112.737 87 115.267 86.1877 117.209 84.6623L115.322 80.3238H115.323Z" fill="#13131C"/>
<path d="M17.5535 82.1741H10.7212L8.88776 78.2169L5.26914 86.9983H0.00146484L9.90442 64.4813H14.9825L24.9182 86.9983H19.5231L17.5552 82.1724L17.5535 82.1741ZM15.9355 78.2169L12.4116 69.5963L8.88776 78.2169H15.9337H15.9355Z" fill="#13131C"/>
<path d="M148.075 82.1741H141.243L139.41 78.2169L135.791 86.9983H130.522L140.425 64.4813H145.503L155.438 86.9983H150.043L148.075 82.1724V82.1741ZM146.457 78.2169L142.933 69.5963L139.41 78.2169H146.456H146.457Z" fill="#13131C"/>
<path d="M176.008 64.4813L174.131 68.7258H167.239V87H162.098V68.7258H155.207L153.329 64.4813H176.008Z" fill="#13131C"/>
<path d="M122.411 64.4813H127.559V86.9983H122.411V64.4813Z" fill="#13131C"/>
<path d="M177.684 64.4813H182.833V86.9983H177.684V64.4813Z" fill="#13131C"/>
<path d="M236.999 64.4813V86.9983H232.773L221.681 73.3277V86.9983H216.598V64.4813H220.856L231.915 78.1519V64.4813H236.999Z" fill="#13131C"/>
<path d="M69.7443 75.3593C69.7443 68.89 74.7224 64.1017 81.5117 64.1017C88.3009 64.1017 93.2791 68.8592 93.2791 75.3593C93.2791 81.8594 88.2699 86.6187 81.5117 86.6187C74.7535 86.6187 69.7443 81.8287 69.7443 75.3593ZM88.2406 75.3593C88.2406 71.2226 85.3526 68.3923 81.5117 68.3923C77.6708 68.3923 74.7828 71.2226 74.7828 75.3593C74.7828 79.4961 77.6708 82.3263 81.5117 82.3263C85.3526 82.3263 88.2406 79.4961 88.2406 75.3593Z" fill="#13131C"/>
<path d="M187.806 75.3593C187.806 68.89 192.784 64.1017 199.573 64.1017C206.363 64.1017 211.341 68.8592 211.341 75.3593C211.341 81.8594 206.332 86.6187 199.573 86.6187C192.815 86.6187 187.806 81.8287 187.806 75.3593ZM206.302 75.3593C206.302 71.2226 203.414 68.3923 199.573 68.3923C195.733 68.3923 192.845 71.2226 192.845 75.3593C192.845 79.4961 195.733 82.3263 199.573 82.3263C203.414 82.3263 206.302 79.4961 206.302 75.3593Z" fill="#13131C"/>
<path d="M27.1204 84.4793L28.8091 80.6846C30.6218 82.0219 33.3255 82.9556 35.9067 82.9556C38.8551 82.9556 40.0544 81.9603 40.0544 80.623C40.0544 76.5496 27.5495 79.3473 27.5495 71.2619C27.5495 67.5612 30.4978 64.4813 36.6132 64.4813C39.3169 64.4813 42.0825 65.1346 44.0797 66.4086L42.5426 70.2341C40.5455 69.0832 38.4863 68.524 36.5822 68.524C33.6322 68.524 32.4949 69.6441 32.4949 71.0122C32.4949 75.0241 44.9998 72.2555 44.9998 80.2485C44.9998 83.8876 42.0205 86.9983 35.874 86.9983C32.4639 86.9983 29.0227 85.9722 27.1169 84.4793H27.1204Z" fill="#13131C"/>
<path d="M48.1481 84.4793L49.8368 80.6846C51.6495 82.0219 54.3532 82.9556 56.9344 82.9556C59.8828 82.9556 61.0821 81.9603 61.0821 80.623C61.0821 76.5496 48.5772 79.3473 48.5772 71.2619C48.5772 67.5612 51.5255 64.4813 57.6409 64.4813C60.3446 64.4813 63.1102 65.1346 65.1074 66.4086L63.5703 70.2341C61.5732 69.0832 59.514 68.524 57.6099 68.524C54.6599 68.524 53.5226 69.6441 53.5226 71.0122C53.5226 75.0241 66.0275 72.2555 66.0275 80.2485C66.0275 83.8876 63.0482 86.9983 56.9017 86.9983C53.4916 86.9983 50.0505 85.9722 48.1447 84.4793H48.1481Z" fill="#13131C"/>
<path d="M79.9126 49.116C79.9126 53.0133 76.8626 55.2672 71.0142 55.2672H61.7144L59.5122 50.2259V32.7246H70.3801C75.9407 32.7246 78.8012 35.076 78.8012 38.5851C78.8012 40.8391 77.657 42.5782 75.846 43.5445C78.3239 44.3499 79.9143 46.2823 79.9143 49.116H79.9126ZM64.6282 36.6527V41.966H69.7443C72.2549 41.966 73.6214 41.0648 73.6214 39.2931C73.6214 37.5215 72.2549 36.6527 69.7443 36.6527H64.6282ZM74.7328 48.5688C74.7328 46.6688 73.3026 45.7676 70.6334 45.7676H66.3859L64.6282 41.9677V51.3391H70.6352C73.3043 51.3391 74.7345 50.5029 74.7345 48.5688H74.7328Z" fill="#13131C"/>
<path d="M98.4658 50.1182H91.6249L89.7897 46.1576L86.1676 54.9493H80.8931L90.8081 32.4066H95.8931L105.839 54.9493H100.437L98.4675 50.1182H98.4658ZM96.846 46.1576L93.3187 37.5267L89.7914 46.1576H96.846Z" fill="#13131C"/>
<path d="M144.448 32.4066H149.597V50.6979H158.859L160.751 54.9493H146.509L144.45 50.2858V32.4049L144.448 32.4066Z" fill="#13131C"/>
<path d="M177.49 50.7629V54.9493H162.312L160.267 50.2858V32.4049H177.078V36.5912H165.383V41.4873H174.881V45.5454H167.13L165.383 41.4873V50.7629H177.49Z" fill="#13131C"/>
<path d="M100.206 32.4561L101.509 37.3162H105.548V37.3316H108.427V55.0038H112.466H117.636H130.222H135.391V37.3316H142.525V37.3162V32.4714V32.4561H100.206Z" fill="#D12F28"/>
<path d="M125.323 54.5268C125.218 54.4225 125.033 54.402 124.895 54.3661C124.385 54.231 123.856 53.9009 123.45 53.6974C123.31 53.6273 123.208 53.4939 123.188 53.3417C123.053 52.3481 122.971 51.4931 123.003 50.4738C123.024 49.8428 123.034 49.4905 123.014 48.7398C123.01 48.5756 123.029 47.9172 122.997 47.6676C122.936 47.1272 122.966 47.0639 122.838 46.5885C122.798 46.4055 122.75 46.2345 122.719 46.0943C122.447 44.8955 122.292 43.6574 121.771 42.3012C121.895 41.5334 122.188 40.8306 122.306 40.5569C122.483 40.5022 122.585 40.6749 122.773 40.7245C123.176 40.8323 123.576 40.9503 123.974 41.0717C124.441 41.2136 124.694 41.058 124.69 40.5757C124.69 40.3979 124.72 40.3586 124.825 40.3911C124.551 39.8147 124.382 39.4625 124.441 39.5582C124.136 39.6352 123.191 39.8404 122.423 39.7241C122.423 39.7207 122.428 39.7053 122.435 39.6814C122.445 39.6523 122.457 39.6283 122.464 39.5941C122.471 39.5651 122.474 39.5343 122.481 39.5052C122.585 39.088 122.762 38.1713 122.559 37.4514C122.364 36.7605 122.173 36.1996 122.226 35.9465C122.299 35.9944 122.488 36.0217 122.538 36.0183C122.845 35.9978 122.948 35.7498 123.038 35.5138C123.346 34.693 123.324 33.8653 122.845 33.0461C122.531 32.5092 122.133 32.2202 121.573 32.2732C120.81 32.345 120.352 32.7588 120.289 33.3505C120.26 33.6396 120.065 33.79 119.831 33.6567C119.206 33.3027 118.616 33.8944 118.07 33.4258C118.046 33.5267 118.06 33.6071 118.101 33.7062C116.685 33.9747 116.538 35.1273 116.538 35.1273C116.538 35.1273 116.966 34.6229 117.401 34.587C116.485 35.3582 116.574 36.2663 116.679 36.7947C116.754 36.728 116.998 36.1209 118.677 36.0491C118.651 36.0491 118.499 36.2133 118.482 36.2304C118.535 36.2235 118.675 36.1962 118.718 36.1859C118.799 36.1688 118.88 36.1483 118.961 36.1226C119.53 35.9431 119.988 35.4506 120.167 34.8913C120.238 34.6742 120.272 34.4467 120.269 34.2193L120.364 34.1492C120.364 34.1492 120.364 34.3561 120.496 34.6827C120.574 34.8708 120.886 35.283 120.886 35.283C120.879 35.4848 120.825 35.6729 120.694 35.837C120.526 36.0457 120.276 36.1602 120.038 36.2714C120.038 36.2714 119.766 36.3894 119.426 36.5331C119.126 36.6596 118.67 36.887 118.42 37.0615C118.13 37.2633 117.827 37.53 117.669 37.8054C117.576 37.9678 117.474 38.1235 117.648 38.2808C118.108 38.6963 118.708 39.2932 119.306 39.5121C119.302 39.5565 119.299 41.1093 118.923 41.5727C118.84 41.6736 118.596 41.766 118.468 41.8275C118.292 41.9113 118.158 42.0208 118.037 42.1525C117.856 42.3491 117.753 42.6074 117.691 42.8673C117.629 43.1238 117.682 43.4077 117.596 43.6539C117.558 43.76 117.51 43.8626 117.462 43.9635C117.377 44.1396 117.281 44.3123 117.191 44.4868C116.971 44.9177 116.804 45.3692 116.673 45.8343C116.495 46.4671 116.128 46.5782 115.573 46.2978C115.47 46.2294 114.936 45.9198 114.924 45.913C113.984 45.4154 112.394 45.441 112.32 45.2666C112.16 44.7587 111.824 44.6133 111.35 44.8647C111.074 45.0101 110.969 45.2204 110.566 45.4615C110.356 45.5881 109.845 45.5539 109.366 46.1952C109.111 46.5372 109.277 46.674 109.361 46.7475C109.482 46.8535 109.727 46.8142 109.992 46.6825C110.268 46.544 110.735 46.4619 111.045 46.4483C111.198 46.4414 111.305 46.4602 111.357 46.4294C111.593 46.2841 112.244 46.373 112.882 46.7766C113.874 47.4076 114.999 47.8386 116.083 48.2918C116.629 48.5209 116.947 48.4234 117.315 47.9925C118.056 47.1272 118.995 46.6603 119.536 45.6394C119.714 45.3059 119.712 45.364 119.897 45.7044C120.507 46.8416 120.591 46.7954 120.899 47.293C120.955 47.382 120.998 47.541 120.996 47.6453C120.991 47.9053 121.005 48.2439 120.996 48.5021C120.97 49.2751 121.117 49.7795 121.379 50.5252C121.59 51.1305 121.944 51.883 122.016 52.5226C122.049 52.8201 122.113 53.1177 122.102 53.4187C122.097 53.5709 122.071 53.7231 122.02 53.865C121.964 54.0172 121.866 54.1283 121.792 54.2686C121.702 54.4396 121.72 54.5918 121.809 54.7577C121.823 54.7833 121.899 54.8603 121.918 54.8825C122.011 54.992 122.468 55.0244 122.774 55.0398C123.164 55.0604 123.52 55.0638 123.889 55.1937C124.156 55.2895 124.46 55.2964 124.733 55.2331C124.875 55.2006 125.013 55.1493 125.135 55.0706C125.228 55.0108 125.378 54.9184 125.416 54.7474C125.435 54.6653 125.387 54.5798 125.331 54.5268H125.323Z" fill="white"/>
<path d="M129.314 46.0737C129.179 45.8907 129.035 45.7214 128.916 45.576C128.387 44.9245 127.735 44.3858 126.984 44.0045C126.577 43.7975 126.131 43.6316 125.792 43.317C125.423 42.9733 125.618 42.5338 125.774 42.1268C125.854 41.9215 125.943 41.7163 126.047 41.5197C126.098 41.4239 126.112 41.3008 126.274 41.3298C126.381 41.3487 126.627 41.2956 126.772 41.2392C127.618 40.8989 128.583 39.8472 128.621 39.8181C128.805 39.6762 128.905 39.6214 129.124 39.5274C129.31 39.447 129.458 39.3222 129.591 39.1734C129.689 39.0622 129.731 38.9289 129.743 38.7835C129.763 38.5578 129.775 37.8617 129.464 37.8139C129.389 37.8019 129.321 37.8446 129.259 37.8857C129.11 37.9866 128.967 38.0943 128.831 38.2089C128.809 38.2277 128.769 38.2448 128.755 38.2192C128.748 38.2072 128.755 38.1918 128.759 38.1781C128.804 38.067 129.029 37.7711 128.9 37.6582C128.871 37.6326 128.824 37.6326 128.79 37.6497C128.755 37.6668 128.726 37.6942 128.698 37.7232C128.487 37.9438 128.226 38.2157 128.226 38.5407C128.23 38.6604 128.23 38.7373 128.252 38.8536C128.278 38.9921 128.223 39.0896 128.099 39.1905C127.732 39.3991 127.441 39.5707 127.223 39.7052C127.127 39.7651 126.982 39.8694 126.92 39.8438C126.791 39.789 126.898 39.6197 126.925 39.5137C127.149 38.6433 127.005 37.8156 126.631 37.0152C126.503 36.7433 126.458 36.4082 126.593 36.1311C126.66 35.9926 126.769 35.8814 126.903 35.8062C127.084 35.7036 127.284 35.7241 127.465 35.6369C127.62 35.5617 127.799 35.3924 127.84 35.2265C128.025 34.4586 127.963 34.0003 127.839 33.3949C127.706 32.7502 127.103 32.1004 126.324 31.9892C125.619 31.8883 124.944 32.097 124.685 33.0119C124.578 33.3881 124.649 33.8994 124.846 34.2603C125.157 34.8331 125.164 35.223 124.752 35.4813C124.473 35.6574 124.072 35.7994 123.638 36.1824C123.119 36.4697 121.397 36.875 121.18 37.7968C120.963 38.7185 122.194 40.2114 122.468 40.4132C122.742 40.615 123.093 41.2837 122.245 41.7847C121.397 42.2841 121.182 42.8587 121.148 43.4794C121.113 44.1019 121.017 44.8578 120.462 45.3503C119.907 45.8428 119.268 47.7992 118.487 48.2062C118.487 48.2062 117.3 48.5414 116.766 49.3776C116.643 49.5674 116.471 49.9231 116.328 50.1677C116.085 50.5815 115.816 50.9937 115.442 51.3032C115.273 51.4434 114.927 51.7256 114.731 51.8265C114.548 51.9205 114.152 52.0471 113.95 52.0796C113.593 52.1394 113.304 52.4131 113.368 52.7688C113.466 53.3228 113.652 53.6563 113.697 54.2172C113.748 54.8859 114.05 55.3698 114.586 55.7409C114.701 55.8196 114.905 55.8692 115.043 55.7854C115.124 55.7375 115.117 55.6725 115.079 55.5956C114.724 54.8585 114.903 54.1574 115.256 53.4853C115.308 53.3844 115.234 53.5725 115.261 53.4802C115.27 53.4528 115.296 53.3416 115.298 53.3143C115.351 53.1022 115.582 52.596 116.518 51.8983C117.222 51.3784 117.956 50.9047 118.597 50.3096C118.654 50.2566 119.035 49.9197 119.602 49.564C120.806 48.8099 122.256 47.6025 122.588 47.187C122.895 46.8056 123.191 46.4157 123.488 46.0275C123.638 45.8326 123.805 45.7795 124.046 45.877C125.018 46.2755 125.981 46.6979 127.018 47.0792C126.252 47.3477 125.683 48.3635 125.335 48.9364C124.792 49.8291 124.511 50.2805 123.55 50.7594C123.488 50.7902 123.445 50.7696 123.391 50.7491C123.098 50.6414 122.597 50.8175 122.469 51.257C122.368 51.6076 122.654 51.782 122.809 52.0505C123.06 52.4832 122.945 52.7431 123.115 53.3502C123.243 53.8068 123.603 54.9149 124.277 54.7508C124.62 54.667 124.341 53.8803 124.284 53.6597C124.184 53.2698 124.525 52.5379 124.501 52.1753C125.011 51.1065 125.573 50.6362 126.61 50.0121C127.051 49.747 127.468 49.4546 127.866 49.1296C128.483 48.6269 129.26 48.1566 129.632 47.4298C129.869 46.9698 129.619 46.4824 129.314 46.0686V46.0737Z" fill="white"/>
<path d="M124.597 35.5548C124.237 35.7173 123.932 35.955 123.619 36.1893C122.95 36.5706 122.147 36.7468 121.568 37.2769C120.562 38.1747 121.656 39.4744 122.333 40.2217C122.828 40.692 123.033 41.3316 122.375 41.7728C121.887 42.0635 121.406 42.4431 121.261 43.0126C121.155 43.382 121.194 43.7856 121.086 44.1584C120.922 44.9536 120.258 45.47 119.852 46.1318C119.535 46.6209 119.338 47.175 119.038 47.6761C118.842 48.0454 118.47 48.2199 118.089 48.3327C117.534 48.5243 117.052 48.8919 116.747 49.3947C117.038 48.8834 117.52 48.4986 118.072 48.2917C118.444 48.1669 118.792 48.0027 118.98 47.6401C119.357 46.9629 119.611 46.2105 120.103 45.5966C120.477 45.1571 120.853 44.7039 120.979 44.1293C121.086 43.7531 121.041 43.358 121.151 42.9784C121.301 42.3816 121.797 41.9711 122.307 41.6753C122.909 41.282 122.695 40.7176 122.254 40.2918C121.992 40.0028 121.739 39.7018 121.523 39.3735C121.075 38.7322 120.801 37.7848 121.52 37.2187C122.116 36.6835 122.919 36.5279 123.605 36.1619C123.92 35.9396 124.239 35.7036 124.599 35.5514L124.597 35.5548Z" fill="#D12F28"/>
<path d="M123.531 46.0189C122.855 47.3169 121.658 48.2301 120.479 49.0544C121.613 48.1959 122.81 47.2622 123.531 46.0189Z" fill="#D12F28"/>
<path d="M124.186 50.3439C123.996 50.4875 123.786 50.6141 123.572 50.7235C123.446 50.8022 123.296 50.6654 123.146 50.6996C122.779 50.7235 122.418 51.0484 122.449 51.4264C122.469 51.6111 122.614 51.7513 122.726 51.9052C123.095 52.3806 122.967 53.0185 123.176 53.5555C123.341 54.0292 123.574 54.7902 124.177 54.809C124.73 54.7902 124.284 53.8889 124.261 53.5777C124.235 53.0954 124.499 52.6457 124.504 52.1686C124.63 51.8932 124.789 51.6299 124.97 51.3853C124.821 51.6196 124.644 51.9326 124.534 52.1668C124.534 52.6474 124.287 53.0937 124.301 53.5743C124.325 53.9026 124.759 54.8073 124.175 54.8278C123.551 54.7902 123.322 54.0565 123.14 53.5657C122.919 53.0373 123.048 52.4011 122.685 51.9326C122.576 51.7821 122.423 51.6384 122.395 51.4298C122.359 51.0194 122.75 50.6825 123.141 50.662C123.24 50.6551 123.341 50.6739 123.429 50.7115C123.472 50.7287 123.515 50.7218 123.557 50.6962C123.77 50.597 123.989 50.4602 124.182 50.3405L124.186 50.3439Z" fill="#D12F28"/>
<path d="M127.101 38.6895C127.132 39.9635 126.439 41.0887 125.773 42.1251C126.377 41.0511 127.065 39.9549 127.101 38.6895Z" fill="#D12F28"/>
</svg>
