<svg width="411" height="305" viewBox="0 0 411 305" fill="none" xmlns="http://www.w3.org/2000/svg">
<path d="M138.734 114.129L143.269 131.156H157.322V131.208H167.339V193.107H181.398H199.382H243.174H261.159V131.208H285.981V131.156V114.181V114.129H138.734Z" fill="#D12F28"/>
<path d="M226.125 191.435C225.761 191.072 225.113 191.001 224.639 190.871C222.868 190.398 221.025 189.244 219.611 188.525C219.124 188.279 218.774 187.812 218.696 187.274C218.229 183.793 217.944 180.799 218.054 177.227C218.125 175.017 218.158 173.786 218.093 171.154C218.08 170.577 218.145 168.27 218.034 167.395C217.82 165.502 217.924 165.282 217.483 163.616C217.34 162.974 217.178 162.378 217.068 161.885C216.12 157.692 215.582 153.349 213.772 148.598C214.2 145.908 215.225 143.445 215.627 142.492C216.244 142.298 216.601 142.907 217.249 143.082C218.651 143.458 220.039 143.873 221.427 144.301C223.049 144.8 223.932 144.255 223.925 142.564C223.925 141.942 224.029 141.799 224.392 141.916C223.439 139.9 222.848 138.662 223.056 138.999C221.992 139.265 218.709 139.984 216.03 139.582C216.03 139.569 216.049 139.517 216.075 139.433C216.107 139.336 216.153 139.252 216.179 139.128C216.198 139.025 216.218 138.921 216.237 138.817C216.594 137.359 217.217 134.144 216.503 131.623C215.822 129.205 215.16 127.235 215.342 126.353C215.595 126.522 216.25 126.612 216.425 126.606C217.496 126.535 217.853 125.666 218.164 124.837C219.241 121.965 219.157 119.061 217.496 116.19C216.406 114.31 215.018 113.299 213.071 113.481C210.418 113.733 208.822 115.179 208.608 117.259C208.504 118.271 207.829 118.796 207.012 118.335C204.838 117.097 202.788 119.172 200.881 117.532C200.796 117.882 200.848 118.167 200.991 118.51C196.067 119.45 195.554 123.488 195.554 123.488C195.554 123.488 197.04 121.719 198.558 121.596C195.366 124.299 195.678 127.475 196.047 129.328C196.307 129.095 197.157 126.969 202.996 126.716C202.905 126.716 202.379 127.293 202.314 127.351C202.503 127.325 202.989 127.228 203.138 127.196C203.424 127.131 203.703 127.06 203.982 126.975C205.961 126.347 207.55 124.623 208.173 122.665C208.413 121.907 208.536 121.11 208.523 120.312L208.854 120.073C208.854 120.073 208.854 120.798 209.315 121.939C209.581 122.6 210.671 124.039 210.671 124.039C210.651 124.746 210.463 125.407 210.003 125.977C209.419 126.71 208.549 127.105 207.719 127.494C207.719 127.494 206.772 127.909 205.591 128.408C204.546 128.849 202.957 129.646 202.087 130.255C201.082 130.962 200.024 131.895 199.473 132.861C199.148 133.431 198.798 133.976 199.401 134.527C201.004 135.985 203.093 138.072 205.169 138.837C205.156 138.992 205.143 144.43 203.833 146.051C203.547 146.407 202.691 146.731 202.25 146.939C201.633 147.231 201.166 147.613 200.751 148.073C200.122 148.767 199.765 149.668 199.544 150.575C199.33 151.476 199.518 152.468 199.213 153.33C199.084 153.699 198.915 154.062 198.746 154.419C198.448 155.041 198.117 155.637 197.806 156.253C197.04 157.763 196.456 159.345 196.002 160.972C195.386 163.182 194.107 163.577 192.174 162.592C191.811 162.352 189.955 161.27 189.916 161.244C186.653 159.5 181.112 159.591 180.853 158.982C180.295 157.199 179.127 156.694 177.479 157.569C176.519 158.081 176.156 158.813 174.754 159.662C174.021 160.103 172.25 159.986 170.583 162.235C169.694 163.435 170.271 163.908 170.563 164.167C170.979 164.536 171.835 164.4 172.756 163.94C173.716 163.454 175.345 163.162 176.415 163.117C176.947 163.098 177.324 163.162 177.499 163.052C178.323 162.54 180.58 162.851 182.799 164.271C186.251 166.481 190.169 167.991 193.939 169.573C195.84 170.37 196.943 170.033 198.227 168.523C200.809 165.489 204.073 163.856 205.954 160.278C206.57 159.105 206.57 159.312 207.206 160.505C209.334 164.485 209.626 164.329 210.69 166.073C210.878 166.384 211.034 166.941 211.028 167.311C211.015 168.218 211.06 169.411 211.028 170.312C210.937 173.021 211.449 174.784 212.358 177.396C213.097 179.515 214.33 182.147 214.576 184.396C214.693 185.44 214.914 186.477 214.875 187.533C214.855 188.065 214.771 188.596 214.583 189.102C214.388 189.633 214.051 190.022 213.791 190.515C213.48 191.111 213.538 191.649 213.85 192.226C213.895 192.31 214.161 192.589 214.226 192.667C214.55 193.049 216.14 193.159 217.21 193.218C218.566 193.289 219.806 193.302 221.09 193.756C222.018 194.086 223.075 194.112 224.029 193.892C224.522 193.782 225.002 193.6 225.424 193.321C225.748 193.107 226.267 192.783 226.404 192.187C226.468 191.902 226.3 191.604 226.112 191.409L226.125 191.435Z" fill="white"/>
<path d="M240.009 161.827C239.541 161.185 239.035 160.596 238.62 160.084C236.778 157.802 234.513 155.916 231.899 154.581C230.484 153.861 228.927 153.278 227.753 152.176C226.469 150.97 227.143 149.434 227.688 148.008C227.961 147.289 228.279 146.569 228.635 145.882C228.811 145.545 228.863 145.117 229.427 145.215C229.803 145.279 230.653 145.098 231.159 144.897C234.105 143.704 237.459 140.016 237.589 139.919C238.231 139.427 238.581 139.226 239.34 138.902C239.983 138.623 240.508 138.182 240.962 137.657C241.306 137.268 241.449 136.802 241.494 136.296C241.566 135.505 241.611 133.068 240.521 132.9C240.268 132.861 240.021 133.003 239.807 133.152C239.288 133.502 238.795 133.885 238.315 134.287C238.237 134.351 238.101 134.41 238.056 134.319C238.03 134.274 238.056 134.222 238.069 134.176C238.224 133.788 239.009 132.751 238.562 132.355C238.458 132.264 238.302 132.264 238.179 132.323C238.056 132.381 237.958 132.478 237.861 132.576C237.128 133.347 236.22 134.3 236.22 135.44C236.233 135.862 236.233 136.127 236.31 136.536C236.401 137.022 236.207 137.365 235.778 137.715C234.503 138.446 233.486 139.046 232.729 139.517C232.392 139.725 231.892 140.094 231.678 140.003C231.231 139.809 231.6 139.219 231.698 138.843C232.476 135.79 231.97 132.893 230.673 130.093C230.231 129.14 230.069 127.967 230.543 126.995C230.776 126.509 231.153 126.12 231.62 125.854C232.249 125.498 232.943 125.569 233.573 125.258C234.111 124.999 234.74 124.402 234.877 123.819C235.519 121.129 235.305 119.522 234.87 117.409C234.41 115.153 232.308 112.871 229.602 112.482C227.15 112.132 224.801 112.858 223.899 116.067C223.53 117.383 223.776 119.172 224.457 120.442C225.541 122.445 225.567 123.812 224.133 124.72C223.166 125.336 221.765 125.835 220.253 127.176C218.45 128.181 212.461 129.6 211.709 132.828C210.956 136.056 215.238 141.287 216.185 141.993C217.139 142.7 218.365 145.04 215.413 146.796C212.461 148.546 211.715 150.556 211.592 152.733C211.469 154.911 211.138 157.562 209.205 159.286C207.271 161.01 205.052 167.861 202.334 169.294C202.334 169.294 198.208 170.467 196.346 173.397C195.924 174.064 195.321 175.309 194.821 176.164C193.978 177.616 193.037 179.055 191.74 180.138C191.149 180.63 189.949 181.615 189.268 181.972C188.632 182.303 187.256 182.743 186.549 182.86C185.31 183.067 184.298 184.027 184.519 185.278C184.863 187.216 185.511 188.389 185.667 190.353C185.849 192.693 186.9 194.391 188.762 195.687C189.164 195.966 189.871 196.134 190.351 195.843C190.63 195.674 190.604 195.447 190.481 195.182C189.248 192.602 189.871 190.145 191.097 187.792C191.279 187.442 191.019 188.097 191.117 187.773C191.143 187.682 191.24 187.293 191.246 187.196C191.428 186.451 192.233 184.681 195.489 182.238C197.942 180.416 200.498 178.757 202.723 176.67C202.918 176.482 204.248 175.302 206.22 174.058C210.411 171.42 215.452 167.187 216.607 165.729C217.671 164.394 218.703 163.033 219.741 161.672C220.26 160.984 220.844 160.803 221.681 161.147C225.067 162.547 228.415 164.024 232.022 165.36C229.356 166.299 227.37 169.858 226.164 171.867C224.276 174.998 223.296 176.579 219.955 178.252C219.734 178.362 219.585 178.284 219.403 178.219C218.385 177.837 216.64 178.459 216.198 179.995C215.848 181.22 216.841 181.836 217.379 182.776C218.255 184.292 217.853 185.2 218.443 187.326C218.884 188.927 220.143 192.809 222.485 192.232C223.679 191.941 222.706 189.186 222.511 188.415C222.167 187.047 223.348 184.487 223.27 183.21C225.041 179.464 226.994 177.817 230.614 175.633C232.152 174.706 233.599 173.682 234.98 172.541C237.128 170.778 239.833 169.132 241.124 166.585C241.942 164.971 241.073 163.266 240.015 161.814L240.009 161.827Z" fill="white"/>
<path d="M223.601 124.979C222.349 125.549 221.291 126.386 220.195 127.202C217.872 128.544 215.076 129.16 213.065 131.02C209.574 134.163 213.376 138.707 215.731 141.319C217.457 142.946 218.164 145.254 215.874 146.77C209.49 150.393 213.48 153.971 209.555 158.807C207.719 160.835 206.324 163.123 205.221 165.625C204.624 166.844 204.034 168.179 202.853 168.957C201.64 169.624 200.284 169.838 199.122 170.603C197.961 171.29 197.001 172.301 196.281 173.455C196.968 172.288 197.903 171.245 199.064 170.512C200.18 169.735 201.594 169.443 202.73 168.775C204.819 167.129 205.312 164.024 206.797 161.853C208.14 159.526 210.444 157.757 210.989 155.015C211.365 153.693 211.209 152.319 211.585 150.983C212.098 148.903 213.85 147.425 215.614 146.407C217.703 145.033 216.957 143.069 215.426 141.585C214.511 140.574 213.629 139.517 212.883 138.364C211.319 136.114 210.372 132.783 212.876 130.8C214.953 128.926 217.749 128.382 220.136 127.105C221.233 126.327 222.342 125.498 223.601 124.973V124.979Z" fill="#D12F28"/>
<path d="M219.896 161.639C217.567 166.196 213.389 169.398 209.282 172.276C213.214 169.249 217.379 165.988 219.896 161.639Z" fill="#D12F28"/>
<path d="M222.167 176.787C221.505 177.292 220.779 177.739 220.039 178.122C219.591 178.401 219.066 177.921 218.56 178.044C217.288 178.128 216.03 179.269 216.133 180.585C216.205 181.227 216.704 181.719 217.1 182.257C218.385 183.923 217.944 186.159 218.664 188.045C219.248 189.717 220.033 192.355 222.141 192.433C224.068 192.349 222.504 189.225 222.433 188.123C222.342 186.431 223.263 184.856 223.283 183.19C223.731 182.244 224.276 181.239 224.918 180.455C224.34 181.285 223.789 182.374 223.393 183.177C223.393 184.863 222.537 186.425 222.589 188.11C222.673 189.264 224.178 192.433 222.148 192.505C219.974 192.375 219.176 189.802 218.534 188.084C217.768 186.237 218.216 184.007 216.951 182.367C216.575 181.842 216.036 181.337 215.945 180.604C215.822 179.159 217.184 177.986 218.547 177.908C219.085 177.798 219.598 178.271 219.994 178.031C220.74 177.681 221.499 177.201 222.167 176.787Z" fill="#D12F28"/>
<path d="M232.314 135.959C232.431 140.425 230.017 144.366 227.688 147.995C229.784 144.23 232.178 140.392 232.314 135.959Z" fill="#D12F28"/>
<path d="M238.529 57.9396C237.919 58.6202 237.29 59.2359 236.622 59.8257C231.944 64.0388 226.397 66.1907 220.039 66.1907C205.539 66.1907 195.223 55.7877 195.223 40.8735C195.223 25.9593 205.539 15.5887 220.039 15.5887C223.302 15.5887 226.364 16.1461 229.167 17.2674C232.924 18.7128 236.271 21.1564 239.223 24.5203L245.99 8.9126C245.562 8.56259 245.127 8.22555 244.686 7.90146C237.867 2.7745 229.115 0.000366211 219.15 0.000366211C195.029 0.000366211 177.09 17.0665 177.09 40.88C177.09 64.6934 195.029 81.7855 219.033 81.7855C229.362 81.7855 238.334 78.8882 245.224 73.4372L238.529 57.9461V57.9396Z" fill="#13131C"/>
<path d="M152.028 63.4749H128.198L121.808 49.5847L109.189 80.4178H90.8159L125.35 1.35498H143.062L177.713 80.4113H158.892L152.028 63.4684V63.4749ZM146.384 49.5847L134.096 19.3156L121.808 49.5847H146.384Z" fill="#13131C"/>
<path d="M320.184 65.7305V80.4113H267.309L260.186 64.0582V1.35498H318.744V16.0423H278.007V33.2122H311.095V47.4393H284.093L278.007 33.2122V65.7369H320.184V65.7305Z" fill="#13131C"/>
<path d="M220.078 226.125H237.971V290.124H270.157L276.735 305H227.234L220.071 287.357V226.125H220.078Z" fill="#13131C"/>
<path d="M335.606 290.351V305H282.854L275.743 287.357V226.125H334.172V240.773H293.526V257.904H326.536V272.099H299.592L293.52 257.904V290.358H335.599L335.606 290.351Z" fill="#13131C"/>
<path d="M183.098 226.125H201.01V305H183.098V226.125Z" fill="#13131C"/>
<path d="M145.832 305L145.722 257.677L122.943 296.664H114.873L92.2043 258.695V305.006H75.3945V226.131H90.2126L119.187 275.145L147.714 226.131H162.421L162.642 305.006H145.839L145.832 305Z" fill="#13131C"/>
<path d="M71.0735 172.424C71.0735 186.088 60.4465 193.995 40.0749 193.995H7.67503L0 176.313V114.939H37.8626C57.2351 114.939 67.2003 123.184 67.2003 135.492C67.2003 143.4 63.2168 149.499 56.9042 152.882C65.5394 155.708 71.0735 162.482 71.0735 172.418V172.424ZM17.8219 128.719V147.354H35.6438C44.3893 147.354 49.1513 144.191 49.1513 137.981C49.1513 131.772 44.3893 128.719 35.6438 128.719H17.8219ZM53.0245 170.506C53.0245 163.843 48.0419 160.68 38.7449 160.68H23.9463L17.8219 147.354V180.215H38.7449C48.0419 180.215 53.0245 177.279 53.0245 170.499V170.506Z" fill="#13131C"/>
<path d="M135.705 175.944H111.875L105.485 162.054L92.866 192.887H74.4927L109.034 113.831H126.745L161.396 192.887H142.575L135.711 175.944H135.705ZM130.06 162.054L117.773 131.785L105.485 162.054H130.06Z" fill="#13131C"/>
<path d="M295.894 113.831H313.826V177.979H346.09L352.681 192.887H303.07L295.894 176.534V113.831Z" fill="#13131C"/>
<path d="M411 178.2V192.88H358.125L351.001 176.527V113.824H409.56V128.505H368.823V145.675H401.91V159.902H374.908L368.823 145.675V178.2H411Z" fill="#13131C"/>
</svg>
