<svg width="371" height="433" viewBox="0 0 371 433" fill="none" xmlns="http://www.w3.org/2000/svg">
<g style="mix-blend-mode:screen" opacity="0.9" clip-path="url(#clip0_75_182)">
<path d="M251.749 340.412C252.455 340.363 253.149 340.363 253.818 340.424C253.112 340.291 252.418 340.242 251.749 340.412Z" fill="white"/>
<path d="M191.411 260.642C188.404 265.104 185.713 269.749 183.741 274.781C186.395 270.137 188.939 265.238 191.411 260.642Z" fill="white"/>
<path d="M304.051 173.389C302.188 176.93 300.569 180.641 299.133 184.376C301.568 179.562 304.149 174.772 306.669 169.945C305.098 170.321 304.782 172.007 304.051 173.389Z" fill="white"/>
<path d="M246.221 19.694C240.548 9.95613 233.353 4.70522 223.223 5.65111C209.429 6.94868 201.126 14.4431 200.031 25.2117C199.495 30.4504 195.976 33.179 191.74 30.7779C180.429 24.3628 169.789 35.1071 159.891 26.6062C159.452 28.4253 159.72 29.8926 160.451 31.6874C134.859 36.5624 132.205 57.469 132.205 57.469C132.205 57.469 139.924 48.3011 147.813 47.6826C131.243 61.6891 132.851 78.1331 134.762 87.7254C136.113 86.5006 140.521 75.5137 170.872 74.204C170.41 74.2282 167.682 77.1751 167.341 77.5025C168.315 77.3812 170.836 76.8719 171.615 76.7021C173.088 76.3868 174.561 76.0109 175.998 75.5501C186.285 72.2758 194.552 63.3747 197.79 53.2125C199.057 49.2834 199.678 45.136 199.629 41.0129L201.345 39.7517C201.345 39.7517 201.333 43.511 203.744 49.4168C205.144 52.8365 210.781 60.3067 210.781 60.3067C210.671 63.9568 209.697 67.3887 207.311 70.3598C204.267 74.1434 199.763 76.2049 195.441 78.2301C195.441 78.2301 190.522 80.3765 184.386 82.9717C178.968 85.2636 170.714 89.3746 166.185 92.5519C160.95 96.2142 155.459 101.053 152.61 106.037C150.93 108.984 149.092 111.809 152.245 114.659C160.572 122.214 171.408 133.019 182.195 136.984C182.134 137.797 182.073 165.968 175.267 174.359C173.77 176.203 169.338 177.876 167.061 178.968C163.872 180.496 161.437 182.472 159.257 184.849C155.982 188.426 154.132 193.095 152.988 197.813C151.867 202.469 152.841 207.623 151.283 212.098C150.601 214.014 149.725 215.894 148.848 217.725C147.314 220.926 145.573 224.043 143.966 227.208C139.985 235.03 136.953 243.215 134.579 251.656C131.365 263.115 124.73 265.141 114.698 260.06C112.823 258.823 103.181 253.208 102.949 253.087C85.9901 244.052 57.2212 244.513 55.882 241.372C52.9723 232.144 46.9214 229.512 38.3383 234.072C33.3588 236.715 31.4595 240.523 24.1791 244.901C20.3806 247.181 11.1643 246.587 2.50808 258.216C-2.09396 264.413 0.888847 266.887 2.41069 268.233C4.57778 270.149 9.02155 269.458 13.8062 267.057C18.7735 264.546 27.2471 263.043 32.8231 262.812C35.5868 262.691 37.5347 263.043 38.46 262.473C42.7333 259.829 54.4819 261.442 66.0114 268.791C83.9447 280.226 104.289 288.06 123.866 296.27C133.751 300.418 139.474 298.671 146.145 290.837C159.55 275.121 176.509 266.669 186.298 248.139C189.499 242.075 189.487 243.13 192.799 249.315C192.896 249.497 192.994 249.679 193.091 249.861C193.895 248.745 194.747 247.654 195.648 246.623C202.052 239.08 209.113 230.288 211.122 220.465C213.033 213.59 212.169 206.568 214.165 199.547C216.138 191.337 221.848 184.764 228.446 179.756C230.76 177.997 233.182 176.433 235.593 175.051C238.186 173.219 240.463 170.976 241.291 168.344C242.727 164.233 240.792 159.819 237.663 155.781C236.689 154.52 235.593 153.307 234.461 152.143C211.244 127.174 200.347 100.81 236.969 85.2273C235.422 79.4913 234.509 74.9801 235.069 72.3365C236.372 73.1975 239.793 73.6947 240.694 73.634C246.246 73.2581 248.121 68.7469 249.728 64.4783C255.316 49.5866 254.902 34.5614 246.246 19.7061L246.221 19.694Z" fill="white"/>
<path d="M272.08 413.524C267.32 414.689 263.424 412.312 260.307 408.504C260.697 409.025 261.111 409.547 261.537 410.044C264.276 413.549 271.24 416.629 274.296 412.3C274.43 411.924 274.515 411.536 274.6 411.148C274.15 412.348 273.346 413.209 272.068 413.524H272.08Z" fill="white"/>
<path d="M275.112 412.712C271.593 417.708 264.106 414.203 260.916 410.614C253.964 402.574 250.641 392.169 248.425 381.97C247.451 375.192 247.183 368.34 242.776 362.822C240.889 360.142 237.991 357.438 237.468 353.351C236.993 346.245 242.642 340.63 249.021 339.223C249.046 338.108 249.07 336.98 249.107 335.84C249.472 324.404 249.655 318.014 249.301 304.395C249.228 301.424 249.582 289.455 248.985 284.932C248.279 278.674 248.242 275.946 247.707 272.55C238.016 284.859 225.524 294.997 212.595 303.983C212.704 315.879 215.285 324.538 219.559 336.762C223.406 347.749 229.785 361.379 231.088 373.009C231.685 378.417 232.841 383.802 232.646 389.259C232.549 392.024 232.099 394.764 231.149 397.371C230.138 400.124 228.373 402.137 227.046 404.684C225.427 407.776 225.731 410.553 227.363 413.561C227.606 414.009 228.982 415.44 229.311 415.828C231.003 417.817 239.245 418.387 244.797 418.69C251.822 419.066 258.299 419.115 264.946 421.492C269.767 423.214 275.246 423.335 280.213 422.207C282.77 421.625 285.266 420.679 287.469 419.26C289.162 418.169 291.864 416.483 292.546 413.391C292.875 411.912 292.01 410.359 291.012 409.377C289.125 407.497 285.765 407.121 283.293 406.467C280.773 405.787 278.216 404.854 275.684 403.762C276.195 406.782 276.317 409.826 275.124 412.7L275.112 412.712Z" fill="white"/>
<path d="M247.293 270.246C247.22 269.919 247.147 269.579 247.073 269.215C245.235 271.58 243.397 273.933 241.534 276.261C237.772 280.966 226.133 291.298 212.607 301.727C212.607 302.03 212.595 302.358 212.583 302.661C224.867 292.584 236.993 282.24 247.293 270.246Z" fill="white"/>
<path d="M109.146 390.253C109.134 390.326 109.11 390.386 109.098 390.435C108.635 392.011 109.792 389.101 109.146 390.253Z" fill="white"/>
<path d="M365.789 106.11C364.462 105.903 363.184 106.667 362.076 107.419C359.397 109.238 356.816 111.203 354.333 113.301C353.931 113.64 353.213 113.944 352.969 113.471C352.847 113.24 352.945 112.973 353.042 112.743C353.858 110.742 357.936 105.358 355.599 103.32C355.063 102.86 354.248 102.86 353.59 103.151C352.945 103.442 352.434 103.963 351.947 104.472C348.124 108.462 343.424 113.41 343.424 119.304C343.497 121.486 343.485 122.869 343.887 124.967C344.362 127.489 343.363 129.26 341.123 131.091C334.492 134.866 329.216 137.979 325.296 140.428C323.969 141.253 322.143 142.551 320.852 142.914C318.259 152.41 313.791 161.456 308.629 169.994C310.747 170.139 314.728 169.254 317.151 168.284C332.443 162.123 349.877 143.011 350.559 142.49C353.907 139.919 355.709 138.913 359.641 137.215C362.989 135.772 365.692 133.48 368.066 130.788C369.843 128.775 370.574 126.361 370.817 123.718C371.207 119.631 371.426 107.007 365.777 106.11H365.789Z" fill="white"/>
<path d="M355.928 246.987C346.37 235.175 334.598 225.389 320.998 218.465C313.633 214.717 305.561 211.722 299.449 205.998C292.777 199.765 296.296 191.786 299.12 184.4C299.12 184.4 299.12 184.388 299.12 184.376C300.545 180.641 302.176 176.942 304.039 173.389C304.769 172.007 305.086 170.321 306.657 169.945C311.356 160.959 315.885 151.864 319.026 142.32C318.064 140.998 319.501 138.573 319.915 136.936C323.969 121.135 321.351 106.134 314.607 91.6181C312.318 86.6825 311.478 80.6069 313.925 75.5622C315.13 73.0519 317.102 71.0389 319.525 69.6564C322.788 67.8131 326.416 68.1648 329.679 66.5762C332.479 65.218 335.73 62.1499 336.46 59.1425C339.808 45.2087 338.676 36.9019 336.412 25.9271C334.001 14.2247 323.092 2.42534 309.043 0.412292C296.308 -1.41886 284.097 2.35258 279.422 18.9784C277.498 25.7937 278.764 35.0707 282.331 41.6435C287.956 52.024 288.09 59.0939 280.651 63.8113C278.192 65.3635 275.209 66.7823 271.886 68.6256C267.917 71.1723 264.215 74.0827 260.417 77.0538C251.688 81.0314 244.066 84.5845 237.736 88.0528C211.937 102.181 207.554 114.865 237.991 148.929C240.755 151.719 243.665 155.223 245.345 159.116C246.793 162.487 247.329 166.149 246.051 169.921C243.555 177.767 235.422 180.568 229.992 185.14C228.884 185.977 227.862 186.862 226.912 187.796C220.727 193.859 217.684 201.984 217.501 210.813C217.026 228.59 205.692 241.178 195.684 254.663C194.223 256.628 192.786 258.629 191.423 260.654C188.964 265.25 186.407 270.149 183.753 274.794C183.582 275.242 183.4 275.679 183.241 276.128C180.052 282.288 177.032 289.37 170.482 293.578C164.066 296.173 157.516 298.538 151.612 301.776C146.048 305.135 140.204 309.792 136.296 315.928C134.104 319.384 130.975 325.835 128.382 330.274C123.999 337.792 119.129 345.25 112.385 350.865C109.317 353.424 103.083 358.529 99.5282 360.36C96.2288 362.058 89.0701 364.35 85.4055 364.969C78.9651 366.048 73.7178 371.02 74.8622 377.483C76.6397 387.537 80.0121 393.588 80.8156 403.774C81.7653 415.901 87.2074 424.681 96.8984 431.411C98.9681 432.854 102.657 433.728 105.153 432.236C106.614 431.363 106.48 430.199 105.81 428.804C99.3943 415.44 102.645 402.707 109.012 390.532C109.073 390.423 109.122 390.338 109.158 390.265C109.341 389.598 109.743 387.9 109.767 387.452C110.729 383.607 114.893 374.415 131.816 361.767C144.538 352.32 157.833 343.747 169.411 332.93C170.434 331.972 177.337 325.835 187.564 319.408C195.721 314.279 204.499 307.997 212.607 301.751C226.133 291.322 237.772 280.99 241.534 276.285C243.397 273.945 245.235 271.592 247.074 269.24C250.677 264.607 254.244 259.926 257.799 255.257C260.514 251.704 263.534 250.746 267.88 252.541C285.46 259.781 302.858 267.433 321.619 274.369C307.777 279.244 297.465 297.677 291.182 308.07C281.37 324.271 276.305 332.457 258.919 341.127C257.958 341.612 257.252 341.406 256.472 341.115C255.596 340.933 254.695 340.63 253.818 340.46C253.149 340.388 252.467 340.388 251.749 340.448C251.736 340.448 251.712 340.448 251.7 340.448C250.775 340.521 249.874 340.703 248.997 340.97C248.802 357.268 250.227 371.553 252.43 387.888C252.808 390.677 254.646 393.079 257.166 394.352C262.061 396.826 267.953 400.306 274.065 403.071C273.578 401.179 272.969 399.3 272.482 397.505C268.416 387.391 275.514 376.525 275.781 366.703C277.742 362.567 280.31 357.777 283.232 354.248C290.878 343.043 300.131 336.095 314.278 327.569C322.252 322.767 329.776 317.468 336.972 311.562C348.111 302.431 362.173 293.905 368.894 280.724C373.155 272.38 368.638 263.54 363.123 256.021C360.688 252.699 358.07 249.643 355.915 246.987H355.928ZM275.088 137.833C275.088 137.833 275.014 137.858 274.978 137.858C274.82 137.47 274.844 137.433 275.088 137.833Z" fill="white"/>
<path d="M239.745 353.084C240.085 356.092 242.569 358.578 244.687 361.415C251.469 370.098 249.022 381.983 252.662 391.672C254.427 397.59 256.594 403.58 260.308 408.504C263.424 412.312 267.32 414.689 272.081 413.524C273.359 413.209 274.162 412.348 274.613 411.148C275.173 408.516 274.747 405.763 274.053 403.059C267.941 400.282 262.049 396.814 257.154 394.34C254.634 393.066 252.796 390.665 252.418 387.876C250.215 371.541 248.79 357.268 248.985 340.958C243.604 342.619 239.294 347.773 239.745 353.096V353.084Z" fill="white"/>
<path d="M274.978 137.858C274.978 137.858 275.051 137.833 275.088 137.833C274.844 137.445 274.82 137.47 274.978 137.858Z" fill="white"/>
<path d="M183.23 276.128C183.388 275.679 183.57 275.23 183.741 274.794C178.688 283.658 173.258 291.601 167.39 294.682C167.39 294.682 159.781 296.84 151.6 301.788C157.504 298.55 164.054 296.185 170.47 293.59C177.02 289.382 180.04 282.3 183.23 276.14V276.128Z" fill="white"/>
<path d="M203.476 310.119C206.52 308.13 209.576 306.081 212.595 303.983C212.595 303.546 212.583 303.11 212.595 302.661C209.563 305.159 206.508 307.633 203.488 310.119H203.476Z" fill="white"/>
<path d="M253.806 340.424C254.695 340.594 255.596 340.897 256.46 341.079C256.326 341.03 256.192 340.982 256.046 340.921C255.352 340.666 254.598 340.497 253.806 340.424Z" fill="white"/>
<path d="M248.985 340.945C249.862 340.679 250.775 340.485 251.688 340.424C251.7 340.424 251.724 340.424 251.737 340.424C250.836 340.497 249.91 340.654 248.985 340.921C248.985 340.933 248.985 340.945 248.985 340.97V340.945Z" fill="white"/>
<path d="M274.613 411.147C275.368 409.171 275.173 406.26 274.649 403.326C274.454 403.241 274.26 403.144 274.053 403.059C274.747 405.763 275.173 408.516 274.613 411.147Z" fill="white"/>
<path d="M306.669 169.945C304.149 174.772 301.58 179.562 299.133 184.376C299.133 184.376 299.133 184.376 299.133 184.388C302.383 179.78 305.634 174.978 308.641 170.006C308.471 170.006 308.312 169.982 308.166 169.957C307.57 169.848 307.083 169.86 306.681 169.957L306.669 169.945Z" fill="white"/>
</g>
<defs>
<clipPath id="clip0_75_182">
<rect width="371" height="433" fill="white"/>
</clipPath>
</defs>
</svg>
