<svg width="297" height="346" viewBox="0 0 297 346" fill="none" xmlns="http://www.w3.org/2000/svg">
<g opacity="0.9" clip-path="url(#clip0_75_182)">
<path d="M201.535 272.015C202.1 271.976 202.655 271.976 203.192 272.025C202.626 271.918 202.071 271.879 201.535 272.015Z" fill="#D9DADB"/>
<path d="M153.232 208.273C150.824 211.839 148.67 215.55 147.092 219.571C149.216 215.86 151.253 211.945 153.232 208.273Z" fill="#D9DADB"/>
<path d="M243.405 138.551C241.914 141.381 240.617 144.346 239.467 147.331C241.417 143.483 243.483 139.656 245.5 135.799C244.243 136.1 243.99 137.446 243.405 138.551Z" fill="#D9DADB"/>
<path d="M197.11 15.7369C192.568 7.95568 186.808 3.7598 178.699 4.51564C167.656 5.5525 161.009 11.5411 160.132 20.146C159.703 24.3322 156.887 26.5125 153.495 24.5938C144.441 19.4677 135.922 28.0533 127.999 21.2604C127.648 22.7139 127.862 23.8864 128.447 25.3206C107.96 29.2161 105.835 45.9221 105.835 45.9221C105.835 45.9221 112.015 38.5962 118.33 38.102C105.065 49.2943 106.352 62.4342 107.882 70.0992C108.964 69.1205 112.492 60.3412 136.79 59.2946C136.419 59.314 134.236 61.6687 133.963 61.9304C134.743 61.8335 136.761 61.4265 137.384 61.2908C138.564 61.0389 139.743 60.7385 140.893 60.3702C149.129 57.7539 155.746 50.6412 158.339 42.5208C159.353 39.3812 159.85 36.0671 159.811 32.7724L161.185 31.7646C161.185 31.7646 161.175 34.7686 163.105 39.4877C164.226 42.2204 168.738 48.1896 168.738 48.1896C168.651 51.1063 167.871 53.8487 165.961 56.2228C163.524 59.2462 159.918 60.8935 156.458 62.5118C156.458 62.5118 152.52 64.2269 147.608 66.3007C143.271 68.1321 136.663 71.4171 133.037 73.956C128.847 76.8824 124.451 80.7488 122.17 84.7315C120.825 87.0862 119.354 89.3441 121.878 91.6213C128.544 97.6583 137.219 106.292 145.854 109.461C145.805 110.11 145.756 132.621 140.308 139.326C139.109 140.799 135.562 142.137 133.739 143.009C131.186 144.23 129.236 145.809 127.492 147.708C124.87 150.567 123.389 154.298 122.472 158.067C121.576 161.788 122.355 165.907 121.108 169.482C120.562 171.013 119.86 172.515 119.159 173.979C117.931 176.537 116.537 179.027 115.25 181.556C112.063 187.807 109.636 194.348 107.736 201.092C105.163 210.249 99.8512 211.868 91.8202 207.807C90.3193 206.819 82.6002 202.332 82.415 202.235C68.8383 195.016 45.8078 195.384 44.7357 192.875C42.4063 185.5 37.5624 183.398 30.6912 187.041C26.705 189.154 25.1845 192.196 19.3562 195.695C16.3154 197.516 8.93739 197.041 2.00774 206.334C-1.67637 211.286 0.711482 213.263 1.92977 214.339C3.66462 215.87 7.22203 215.317 11.0523 213.399C15.0288 211.393 21.8123 210.191 26.2761 210.007C28.4885 209.91 30.0479 210.191 30.7887 209.736C34.2096 207.623 43.6148 208.912 52.8446 214.784C67.201 223.922 83.4871 230.182 99.1592 236.742C107.073 240.056 111.654 238.661 116.995 232.401C127.726 219.843 141.302 213.089 149.138 198.282C151.702 193.437 151.692 194.28 154.343 199.222C154.421 199.367 154.499 199.512 154.577 199.658C155.22 198.766 155.902 197.894 156.624 197.071C161.75 191.043 167.403 184.018 169.011 176.169C170.541 170.674 169.849 165.064 171.448 159.453C173.027 152.893 177.598 147.641 182.88 143.639C184.732 142.233 186.671 140.983 188.601 139.879C190.677 138.415 192.5 136.623 193.163 134.52C194.313 131.235 192.763 127.708 190.258 124.481C189.478 123.473 188.601 122.504 187.695 121.574C169.109 101.622 160.386 80.555 189.703 68.103C188.465 63.5196 187.734 59.9148 188.182 57.8023C189.225 58.4903 191.964 58.8876 192.685 58.8392C197.129 58.5388 198.63 54.934 199.917 51.523C204.39 39.6234 204.059 27.6172 197.129 15.7466L197.11 15.7369Z" fill="#D9DADB"/>
<path d="M217.811 330.437C214 331.368 210.881 329.468 208.386 326.426C208.698 326.842 209.029 327.259 209.371 327.656C211.564 330.457 217.138 332.918 219.585 329.459C219.692 329.158 219.76 328.848 219.828 328.538C219.468 329.497 218.825 330.185 217.801 330.437H217.811Z" fill="#D9DADB"/>
<path d="M220.238 329.788C217.421 333.781 211.427 330.98 208.874 328.112C203.308 321.687 200.648 313.373 198.874 305.223C198.094 299.807 197.88 294.332 194.352 289.923C192.841 287.781 190.521 285.62 190.102 282.354C189.722 276.676 194.244 272.189 199.351 271.065C199.371 270.174 199.39 269.273 199.42 268.362C199.712 259.224 199.858 254.117 199.576 243.235C199.517 240.861 199.8 231.297 199.322 227.682C198.757 222.682 198.728 220.502 198.299 217.788C190.541 227.624 180.541 235.725 170.19 242.905C170.278 252.412 172.344 259.33 175.765 269.098C178.845 277.878 183.952 288.769 184.995 298.062C185.473 302.384 186.399 306.687 186.243 311.047C186.165 313.257 185.804 315.447 185.044 317.53C184.235 319.73 182.822 321.338 181.759 323.373C180.463 325.844 180.707 328.063 182.013 330.467C182.208 330.825 183.309 331.969 183.572 332.279C184.927 333.868 191.525 334.323 195.969 334.566C201.593 334.866 206.778 334.905 212.1 336.804C215.959 338.18 220.345 338.277 224.322 337.376C226.368 336.911 228.366 336.155 230.13 335.021C231.485 334.149 233.649 332.802 234.195 330.331C234.458 329.149 233.766 327.908 232.967 327.123C231.456 325.621 228.766 325.321 226.787 324.798C224.77 324.255 222.723 323.509 220.696 322.637C221.105 325.05 221.203 327.482 220.248 329.779L220.238 329.788Z" fill="#D9DADB"/>
<path d="M197.967 215.947C197.909 215.686 197.851 215.414 197.792 215.124C196.32 217.013 194.849 218.893 193.357 220.754C190.346 224.513 181.028 232.769 170.2 241.103C170.2 241.345 170.19 241.607 170.181 241.849C180.015 233.797 189.722 225.531 197.967 215.947Z" fill="#D9DADB"/>
<path d="M87.3758 311.842C87.3661 311.9 87.3466 311.949 87.3368 311.987C86.9665 313.247 87.8924 310.921 87.3758 311.842Z" fill="#D9DADB"/>
<path d="M292.829 84.7897C291.766 84.6249 290.743 85.2354 289.856 85.8362C287.712 87.2898 285.646 88.8596 283.657 90.536C283.336 90.8073 282.761 91.0496 282.566 90.6717C282.468 90.4875 282.546 90.2744 282.624 90.0902C283.277 88.4914 286.542 84.1889 284.671 82.5609C284.242 82.1927 283.589 82.1927 283.063 82.4253C282.546 82.6578 282.137 83.0745 281.747 83.4815C278.687 86.6696 274.925 90.6232 274.925 95.3327C274.983 97.0769 274.973 98.1816 275.295 99.858C275.675 101.874 274.876 103.288 273.083 104.752C267.774 107.768 263.551 110.256 260.412 112.213C259.35 112.872 257.888 113.909 256.855 114.2C254.779 121.787 251.202 129.016 247.07 135.838C248.765 135.954 251.952 135.247 253.892 134.472C266.133 129.549 280.09 114.277 280.636 113.86C283.316 111.806 284.759 111.002 287.907 109.645C290.587 108.492 292.751 106.661 294.651 104.509C296.074 102.901 296.659 100.972 296.854 98.8599C297.166 95.5943 297.341 85.5068 292.819 84.7897H292.829Z" fill="#D9DADB"/>
<path d="M284.934 197.361C277.283 187.923 267.858 180.103 256.972 174.57C251.075 171.576 244.613 169.182 239.721 164.608C234.38 159.627 237.196 153.251 239.458 147.35C239.458 147.35 239.458 147.34 239.458 147.331C240.598 144.346 241.904 141.39 243.395 138.551C243.98 137.446 244.233 136.1 245.491 135.799C249.253 128.619 252.878 121.351 255.393 113.725C254.623 112.669 255.773 110.73 256.104 109.422C259.35 96.7959 257.254 84.8091 251.855 73.2098C250.023 69.2659 249.35 64.4111 251.309 60.3799C252.274 58.3741 253.853 56.7655 255.792 55.6608C258.404 54.1879 261.309 54.4689 263.921 53.1995C266.163 52.1142 268.765 49.6625 269.35 47.2593C272.03 36.1252 271.123 29.4874 269.311 20.7177C267.381 11.3666 258.648 1.93804 247.401 0.329456C237.206 -1.13377 227.431 1.8799 223.688 15.1652C222.148 20.6111 223.162 28.0242 226.017 33.2763C230.52 41.5712 230.627 47.2206 224.672 50.9901C222.704 52.2304 220.316 53.3642 217.655 54.8371C214.478 56.8721 211.515 59.1977 208.474 61.5718C201.486 64.7502 195.385 67.5895 190.317 70.3609C169.664 81.65 166.155 91.786 190.521 119.006C192.734 121.235 195.063 124.035 196.408 127.146C197.568 129.84 197.997 132.766 196.973 135.78C194.975 142.049 188.465 144.288 184.118 147.941C183.231 148.61 182.412 149.317 181.652 150.063C176.701 154.908 174.264 161.401 174.118 168.455C173.738 182.661 164.664 192.72 156.653 203.495C155.483 205.065 154.333 206.664 153.242 208.282C151.273 211.955 149.226 215.87 147.101 219.581C146.965 219.94 146.819 220.288 146.692 220.647C144.138 225.57 141.721 231.229 136.478 234.591C131.342 236.665 126.098 238.555 121.371 241.142C116.917 243.826 112.239 247.547 109.11 252.45C107.356 255.212 104.851 260.367 102.775 263.914C99.2663 269.922 95.3678 275.881 89.9683 280.368C87.5123 282.413 82.5221 286.492 79.6762 287.955C77.035 289.312 71.3041 291.143 68.3705 291.638C63.2147 292.5 59.014 296.473 59.9301 301.638C61.3531 309.671 64.0528 314.507 64.6961 322.647C65.4563 332.337 69.8129 339.353 77.571 344.731C79.2279 345.884 82.181 346.581 84.179 345.39C85.3486 344.692 85.2414 343.762 84.7053 342.647C79.569 331.969 82.1713 321.794 87.2686 312.065C87.3173 311.978 87.3563 311.91 87.3856 311.852C87.5318 311.319 87.8534 309.962 87.8729 309.603C88.6428 306.532 91.9761 299.186 105.523 289.079C115.708 281.531 126.351 274.68 135.62 266.036C136.439 265.271 141.965 260.367 150.152 255.231C156.682 251.132 163.709 246.113 170.2 241.122C181.028 232.789 190.346 224.533 193.357 220.773C194.849 218.903 196.32 217.023 197.792 215.143C200.677 211.441 203.533 207.701 206.379 203.97C208.552 201.131 210.969 200.365 214.448 201.799C228.522 207.584 242.45 213.699 257.469 219.242C246.387 223.137 238.132 237.867 233.103 246.171C225.247 259.117 221.193 265.658 207.275 272.587C206.505 272.974 205.94 272.81 205.316 272.577C204.614 272.432 203.893 272.189 203.191 272.054C202.655 271.996 202.11 271.996 201.535 272.044C201.525 272.044 201.505 272.044 201.496 272.044C200.755 272.102 200.034 272.248 199.332 272.461C199.176 285.484 200.316 296.9 202.08 309.952C202.383 312.181 203.854 314.1 205.872 315.117C209.79 317.094 214.507 319.875 219.4 322.084C219.01 320.573 218.522 319.071 218.133 317.637C214.877 309.555 220.559 300.873 220.774 293.023C222.343 289.719 224.399 285.891 226.739 283.072C232.859 274.118 240.267 268.565 251.592 261.753C257.976 257.916 263.999 253.681 269.759 248.962C278.677 241.665 289.934 234.853 295.314 224.32C298.725 217.653 295.109 210.588 290.694 204.581C288.745 201.925 286.649 199.483 284.924 197.361H284.934ZM220.218 110.139C220.218 110.139 220.16 110.159 220.131 110.159C220.004 109.849 220.023 109.82 220.218 110.139Z" fill="#D9DADB"/>
<path d="M191.925 282.141C192.198 284.544 194.186 286.531 195.882 288.798C201.311 295.737 199.352 305.233 202.266 312.976C203.679 317.705 205.414 322.491 208.386 326.426C210.881 329.468 214 331.368 217.811 330.437C218.834 330.186 219.478 329.498 219.838 328.538C220.287 326.435 219.946 324.236 219.39 322.075C214.497 319.856 209.78 317.084 205.862 315.108C203.845 314.09 202.373 312.171 202.071 309.943C200.307 296.89 199.166 285.484 199.322 272.451C195.014 273.779 191.564 277.897 191.925 282.151V282.141Z" fill="#D9DADB"/>
<path d="M220.13 110.158C220.13 110.158 220.189 110.139 220.218 110.139C220.024 109.83 220.004 109.849 220.13 110.158Z" fill="#D9DADB"/>
<path d="M146.682 220.647C146.809 220.288 146.955 219.93 147.092 219.581C143.047 226.665 138.7 233.012 134.002 235.473C134.002 235.473 127.911 237.198 121.361 241.152C126.088 238.564 131.332 236.675 136.468 234.601C141.712 231.238 144.129 225.579 146.682 220.657V220.647Z" fill="#D9DADB"/>
<path d="M162.89 247.809C165.327 246.22 167.773 244.582 170.19 242.905C170.19 242.557 170.181 242.208 170.19 241.849C167.764 243.845 165.317 245.822 162.9 247.809H162.89Z" fill="#D9DADB"/>
<path d="M203.182 272.025C203.893 272.16 204.615 272.403 205.307 272.548C205.199 272.509 205.092 272.47 204.975 272.422C204.42 272.218 203.815 272.083 203.182 272.025Z" fill="#D9DADB"/>
<path d="M199.322 272.441C200.024 272.228 200.755 272.073 201.486 272.025C201.496 272.025 201.515 272.025 201.525 272.025C200.804 272.083 200.063 272.209 199.322 272.422C199.322 272.432 199.322 272.441 199.322 272.461V272.441Z" fill="#D9DADB"/>
<path d="M219.838 328.538C220.442 326.959 220.287 324.633 219.867 322.288C219.712 322.22 219.556 322.143 219.39 322.075C219.945 324.236 220.287 326.435 219.838 328.538Z" fill="#D9DADB"/>
<path d="M245.5 135.799C243.483 139.656 241.426 143.483 239.467 147.33C239.467 147.33 239.467 147.33 239.467 147.34C242.07 143.658 244.672 139.821 247.079 135.848C246.943 135.848 246.816 135.828 246.699 135.809C246.221 135.722 245.832 135.731 245.51 135.809L245.5 135.799Z" fill="#D9DADB"/>
</g>
<defs>
<clipPath id="clip0_75_182">
<rect width="297" height="346" fill="white"/>
</clipPath>
</defs>
</svg>
